<?xml version="1.0" encoding="utf-8"?>
<!-- Generator: Adobe Illustrator 27.5.0, SVG Export Plug-In . SVG Version: 6.00 Build 0)  -->
<svg version="1.1" xmlns="http://www.w3.org/2000/svg" xmlns:xlink="http://www.w3.org/1999/xlink" x="0px" y="0px"
	 viewBox="0 0 841.89 841.89" style="enable-background:new 0 0 841.89 841.89;" xml:space="preserve">
<g id="bg">
	<rect y="-0.001" style="fill:#48B9DB;" width="841.89" height="841.892"/>
</g>
<g id="Layer_1">
	<g>
		<path style="fill:#BABABA;" d="M213.107,626.486c0,0,78.761-1.438,92.881,7.614c14.12,9.052,31.612,53.719,31.612,53.719
			s59.101-32.998,106.971-30.666c47.87,2.332,82.536,30.666,82.536,30.666s-15.212-50.761,17.001-68.762
			c32.213-18.001,53.448,0,53.448,0l-3.513-110.503L417.782,445.42L300.72,538.486c0,0-2.846,28.612-9.728,46.806
			C284.108,603.485,213.107,626.486,213.107,626.486z"/>
		<g>
			<g>
				<path style="fill:#3E67CA;" d="M621.253,508.555l43.713-80.478c6.328-11.65,17.076-18.609,28.745-18.609h18.755
					c2.063,0,3.731-1.986,3.731-4.435c0-2.45-1.668-4.436-3.731-4.436h-18.755c-14.216,0-27.304,8.476-35.013,22.669l-43.715,80.478
					L621.253,508.555z"/>
			</g>
			<path style="fill:#3E67CA;" d="M688.608,406.798c0,4.537-0.88,2.751,2.938,2.751l17.21,9.126
				c7.937,4.561,15.759-0.068,15.759-9.856l0,0c0-4.538-4.866-8.221-8.688-8.221H702.44c-3.82,0-10.67,0.316-10.67,4.854
				L688.608,406.798z"/>
		</g>
		<path style="fill:#041A41;" d="M303.042,689.886c0.985-7.665,8.566-13.046,17.567-12.923l9.711,0.068
			c16.897,0.175,19.763-7.637,20.241-16.841l15.837-120.539c0.448-3.398,3.791-5.46,6.821-4.2l31.22,12.995
			c4.688,1.953,6.906,7.624,4.882,12.492c-1.956,4.706-7.408,6.485-11.545,3.772l-18.901-12.395
			c-2.506-1.639-5.767,0.059-6.057,3.152l-9.855,105.087c0,0,2.625,36.49-41.161,36.038l-12.529-0.128
			C305.728,696.428,302.567,693.586,303.042,689.886z"/>
		<path style="fill:#041A41;" d="M179.827,627.68c0.992-7.269,8.578-12.361,17.581-12.225l9.708,0.09
			c7.018-0.359,33.218,5.55,42.992-17.774l38.934-94.142c1.559-3.766,4.613-6.743,8.414-8.199l33.479-12.832
			c6.235-2.393,11.934-1.981,16.117,3.213c3.207,3.975,0.806,10.758-7.819,13.468l-34.862,7.627
			c-3.914,0.856-7.192,3.564-8.771,7.239l-42.027,97.949c0,0-6.634,22.581-54.99,21.996l-12.528-0.151
			C182.51,633.896,179.343,631.191,179.827,627.68z"/>
		<path style="fill:#041A41;" d="M459.374,561.168c-2.755-1.753-3.156-5.605-0.816-7.891l21.676-21.166
			c4.266-4.16,10.911-4.708,15.795-1.289c4.063,2.833,3.999,8.859-0.12,11.61l-16.319,10.923c-2.569,1.718-2.627,5.476-0.114,7.275
			l37.568,26.906c3.252,2.327,5.173,6.119,5.118,10.112l-0.75,59.103c1.273,12.159,0.894,21.598,16.713,27.541l9.08,3.442
			c8.439,3.141,13.664,10.639,11.947,17.771c-0.824,3.446-4.754,4.819-8.07,3.572l-11.729-4.406
			c-30.02-11.278-28.73-36.963-28.73-36.963l1.927-66.305c0.116-3.948-1.88-7.688-5.215-9.813L459.374,561.168z"/>
		<path style="fill:#020E22;" d="M536.908,499.757c-2.755-1.753-3.157-5.603-0.816-7.891l21.678-21.165
			c4.264-4.159,10.909-4.708,15.793-1.289c4.062,2.833,3.999,8.858-0.12,11.609l-16.318,10.924c-2.57,1.718-2.627,5.477-0.115,7.274
			l37.568,26.907c3.25,2.327,5.173,6.119,5.117,10.112l-0.749,59.102c1.272,12.159,0.893,21.598,16.712,27.54l9.081,3.443
			c8.441,3.139,13.662,10.637,11.948,17.771c-0.826,3.446-4.756,4.818-8.072,3.572l-11.727-4.407
			c-30.02-11.277-28.731-36.962-28.731-36.962l1.927-66.305c0.116-3.95-1.88-7.689-5.215-9.813L536.908,499.757z"/>
		<path style="fill:#011535;" d="M356.534,359.038l-50.08,8.414c0,0-26.285,9.589-39.199,27.2
			c27.592,15.263,80.131,7.074,80.131,7.074L356.534,359.038z"/>
		<path style="fill:#051D51;" d="M596.193,523.702c-12.593,58.278-109.483,74.047-198.079,54.903
			c-88.598-19.145-150.211-81.906-137.618-140.183c12.592-58.275,94.62-89.999,183.22-70.855
			C532.312,386.712,608.785,465.428,596.193,523.702z"/>
		<path style="fill:#082178;" d="M591.737,527.015c0,7.265-0.742,14.414-2.154,21.424c11.874-17.308,18.484-36.513,18.484-56.736
			c0-76.264-93.991-138.087-209.935-138.087c-33.058,0-64.325,5.032-92.145,13.986c13.057-1.411,26.453-2.157,40.116-2.157
			C481.764,365.444,591.737,437.781,591.737,527.015z"/>
		<path style="fill:#082178;" d="M191.155,458.706c101.537,211.757,369.937,139.27,398.978,88.868
			c0.858-7.1,1.036-14.287,0.466-21.53C583.597,437.088,325.723,357.549,191.155,458.706z"/>
		<path style="fill:#051E63;" d="M568.011,567.401l-39.44-41.342c-27.674,29.539-225.575,51.847-337.415-67.353
			C279.677,643.316,495.011,611.887,568.011,567.401z"/>
		<path style="fill:#3154B4;" d="M668.63,556.648c-5.652,33.363-45.144,52.391-88.878,47.087
			c-51.002-6.187-68.108-29.736-58.253-62.109c9.894-32.505,46.649-62.177,90.638-59.8
			C640.1,483.338,674.283,523.283,668.63,556.648z"/>
		<path style="fill:#23489F;" d="M598.542,579.382c-48.638-5.9-70.43-25.55-69.972-53.322c-3.056,5.027-5.455,10.255-7.071,15.566
			c-9.856,32.373,7.251,55.923,58.253,62.109c37.588,4.558,72.018-8.867,84.549-33.906
			C646.104,578.706,622.903,582.337,598.542,579.382z"/>
		<g>
			<g>
				<path style="fill:#3E67CA;" d="M594.904,514.499c2.051,0.323,3.902-1.26,3.899-3.336l-0.07-87.631
					c-0.009-13.262,6.104-24.512,16.354-30.088l16.476-8.968c1.81-0.984,2.327-3.526,1.155-5.677
					c-1.171-2.151-3.588-3.095-5.393-2.111l-16.479,8.963c-12.484,6.797-19.932,20.497-19.917,36.647l0.069,87.634
					C590.999,512.204,592.659,514.144,594.904,514.499z"/>
			</g>
			<path style="fill:#3E67CA;" d="M609.328,393.533c2.171,3.991,0.544,2.843,3.897,1.016l19.479-0.21
				c9.149,0.213,13.807-7.594,9.126-16.189l0,0c-2.17-3.988-8.201-4.895-11.558-3.07l-11.758,6.399
				c-3.356,1.827-9.222,5.378-7.052,9.367L609.328,393.533z"/>
		</g>
		<path style="fill:#4C73D0;" d="M605.848,491.691c-0.615-0.331-0.907-1.053-0.696-1.719c0.211-0.666,0.865-1.088,1.559-1.006
			c9.788,1.165,27.545,6.169,40.079,26.352c13.141,21.16,11.505,38.84,9.379,47.464c-0.163,0.663-0.766,1.123-1.448,1.105
			c-0.683-0.017-1.262-0.506-1.393-1.176c-1.731-8.891-6.135-26.565-15.788-41.769C627.45,505.054,613.742,495.95,605.848,491.691z"
			/>
	</g>
	<g>
		<path style="fill:#BABABA;" d="M267.255,503.5c0,0,13.02,25.834,28.52,21.667s67.15-117.99,67.15-117.99l-24.295-10.916
			L267.255,503.5z"/>
		<path style="fill:#BABABA;" d="M497.44,375.056c0,0,8.239,10.377,0.5,30.84c-7.739,20.462-71.865,44.354-84.183,55.854
			c-12.317,11.5-43.141,134.898-43.141,134.898l-54.505-12.541l60.271-138.688L497.44,375.056z"/>
		<g>
			<g>
				<path style="fill:#D5DFE0;" d="M262.458,476.733l-8.491,3.478c0,0-38.886,2.34-40.625,3.707
					c-0.265,0.207-1.138,2.178-1.861,4.586c-0.285,0.946-0.438,1.566-0.13,2.621c1.117,3.728,5.01,6.505,8.809,8.566
					c8.273,4.502,28.672,7.195,28.672,7.195c2.44-0.315,31.001,9.323,36.433,6.403c2.377-1.278,5.886-5.485,7.216-7.712
					c5.406-9.078,6.545-15.844,6.545-15.844L262.458,476.733z"/>
			</g>
			<g>
				<path style="fill:#824209;" d="M263.728,472.849l-14.956,5.253c0,0-28.926,3.07-31.135,3.149
					c-1.465,0.052-4.164,0.963-4.887,3.369c-0.287,0.952-0.438,1.565-0.13,2.621c1.116,3.728,5.009,6.505,8.809,8.568
					c8.275,4.499,28.673,7.193,28.673,7.193c2.439-0.313,33.559,9.573,38.993,6.654c2.369-1.278,4.701-5.753,5.945-8.026
					c4.387-8.051,5.255-15.781,5.255-15.781L263.728,472.849z"/>
			</g>
			<path style="fill:#1D3F82;" d="M437.296,318.794l-33.354,16.255l-78.587,36.19c0,0-20.302,11.688-30.062,34.846
				c-7.487,17.758-39.919,67.175-39.919,67.175c-2.186,2.889-1.731,8.004,2.45,10.366c8.916,5.026,34.685,5.997,34.685,5.997
				c3.511-0.099,7.344-0.655,8.088-2.326c0,0,36.844-57.047,47.663-77.684c8.681-5.613,62.432-24.02,62.432-24.02
				s23.71-10.703,25.219-28.788C436.537,349.366,437.296,318.794,437.296,318.794z"/>
			<g>
				<path style="fill:#F5F5F5;" d="M251.393,486.571c-0.521-0.127-0.762-0.694-0.655-1.225c0.436-2.152,0.699-4.882,0.229-6.183
					c-0.206-0.574-0.783-0.991-0.803-1.6c-0.019-0.566,0.576-0.932,1.089-0.699c0.34,0.15,0.639,0.382,0.885,0.694
					c1.452,1.799,0.825,6.01,0.387,8.145C252.409,486.257,251.939,486.71,251.393,486.571z"/>
			</g>
			<g>
				<path style="fill:#F5F5F5;" d="M246.975,486.408c-0.52-0.13-0.76-0.696-0.655-1.226c0.438-2.158,0.702-4.881,0.231-6.188
					c-0.206-0.568-0.782-0.991-0.803-1.599c-0.021-0.566,0.574-0.934,1.09-0.697c0.337,0.149,0.636,0.382,0.884,0.691
					c1.448,1.797,0.827,6.016,0.389,8.146C247.993,486.089,247.524,486.542,246.975,486.408z"/>
			</g>
			<g>
				<path style="fill:#F5F5F5;" d="M243.042,486.717c-0.517-0.13-0.76-0.698-0.651-1.224c0.436-2.155,0.696-4.881,0.228-6.189
					c-0.207-0.569-0.785-0.989-0.805-1.597c-0.018-0.565,0.576-0.933,1.093-0.697c0.336,0.147,0.636,0.383,0.881,0.693
					c1.452,1.797,0.829,6.012,0.389,8.145C244.061,486.397,243.589,486.856,243.042,486.717z"/>
			</g>
		</g>
		<g>
			<path style="fill:#F5F5F5;" d="M316.371,562.945l-24.551,12.881c0,0-14.488,2.147-18.234,4.754
				c-0.83,0.582-1.573,2.161-2.173,4.323c-0.391,1.384-1.583,6.938-0.849,8.163c1.862,3.12,3.873,5.016,10.331,8.057
				c11.563,5.47,25.603,0.571,25.603,0.571c2.31-0.849,37.226-8.398,37.226-8.398s1.669-0.396,2.77-3.198l2.733-7.531
				L316.371,562.945z"/>
			<path style="fill:#B56310;" d="M317.347,558.484l-11.519,6.043l-13.032,6.838c0,0-12.323,6.117-16.664,7.505
				c-1.976,0.641-3.668,2.616-4.278,4.781c-0.384,1.378-0.326,2.832,0.413,4.052c1.86,3.113,6.414,6.226,10.326,8.066
				c11.577,5.441,25.6,0.569,25.6,0.569c2.034-0.747,28.414-6.44,37.986-8.994c1.256-0.329,2.087-1.973,2.087-1.973
				s2.282-5.824,3.051-8.313c2.383-7.722,1.086-12.912,1.086-12.912L317.347,558.484z"/>
			<g>
				<path style="fill:#F5F5F5;" d="M309.843,582.192c-0.543,0.359-1.223,0.015-1.593-0.507c-1.337-1.949-4.303-6.043-6.978-8.128
					c-2.029-1.592-3.976-1.905-5.172-1.899c-0.635,0.003-1.323-0.241-1.491-0.86c-0.132-0.486,0.006-1.07,0.513-1.131
					c1.361-0.164,4.338-0.143,7.422,2.27c3.112,2.438,6.441,7.139,7.672,8.964C310.516,581.338,310.286,581.907,309.843,582.192z"/>
			</g>
			<path style="fill:#3154B4;" d="M499.455,329.57l-52.481,30.418c0,0-73.533,51.011-91.945,84.011
				c-5.107,16.833-25.459,68.239-44.658,118.057c-2.165,5.608,18.384,19.479,42.342,8.344c2.163-1.006,34.237-78.07,34.805-79.811
				c0,0,12.367-32.415,20.156-40.724c5.781-6.164,62.829-34.787,62.829-34.787s29.077-17.655,29.419-46.66
				C500.007,360.944,499.455,329.57,499.455,329.57z"/>
			<g>
				<path style="fill:#F5F5F5;" d="M318.673,577.106c-0.545,0.357-1.219,0.014-1.583-0.508c-1.335-1.958-4.319-6.048-6.982-8.134
					c-2.042-1.588-3.974-1.892-5.177-1.891c-0.642-0.002-1.324-0.245-1.486-0.862c-0.134-0.479,0.004-1.071,0.498-1.127
					c1.37-0.16,4.35-0.144,7.428,2.263c3.118,2.435,6.449,7.143,7.677,8.971C319.338,576.257,319.111,576.829,318.673,577.106z"/>
			</g>
			<g>
				<path style="fill:#F5F5F5;" d="M313.922,579.578c-0.542,0.349-1.22,0.017-1.589-0.51c-1.335-1.958-4.305-6.052-6.972-8.127
					c-2.04-1.596-3.986-1.892-5.178-1.896c-0.639-0.002-1.322-0.243-1.486-0.863c-0.13-0.482,0.006-1.07,0.502-1.13
					c1.361-0.162,4.34-0.148,7.427,2.265c3.113,2.437,6.442,7.142,7.672,8.973C314.595,578.724,314.358,579.296,313.922,579.578z"/>
			</g>
		</g>
		<path style="fill:#67D376;" d="M461.979,230.851c0,0,11.891-10.97,4.116-20.559c-7.765-9.598-30.96-18.741-51.072-18.741
			c-20.104,0-29.823,10.751-29.823,10.751l18.741,45.005L461.979,230.851z"/>
		<path style="fill:#4EA054;" d="M354.817,322.879c4.027-4.266,33.682-53.912,33.682-53.912s7.115-61.658-5.123-64.326
			c-12.063-2.62-18.412,16.398-26.05,40.383c-1.798,5.632-25.79,59.069-27.964,64.249c-5.695,13.517-2.215,29.078-2.215,29.078
			S346.572,331.621,354.817,322.879z"/>
		<path style="fill:#67D376;" d="M370.06,211.673c-2.272,16.981-3.855,27.483,6.692,55.813l27.66,61.623
			c1.411,3.811-6.411,3.203,1.362,21.935c12.76,30.781,57.156,28.867,71.671,22.163c14.87-6.863,22.5-17.019,22.5-17.019
			c8.354-11.409,3.785-27.734,4.091-26.35c0,0-18.801-77.938-30.055-102.642c-3.559-7.803-22.281-18.512-34.617-23.307
			c-5.784-2.25-44.563-10.623-44.563-10.623l-1.977,3.056C392.825,196.323,371.613,200.14,370.06,211.673z"/>
		<g>
			<polygon style="fill:#393939;" points="361.028,388.777 361.038,390.827 356.288,393.571 356.281,391.524 			"/>
		</g>
		<g>
			<polygon style="fill:#393939;" points="368.211,384.724 368.211,386.768 363.448,389.522 363.44,387.475 			"/>
		</g>
		<polygon style="fill:#1C1C1C;" points="356.711,392.705 361.032,390.216 361.028,388.777 356.711,391.267 		"/>
		<polygon style="fill:#1C1C1C;" points="363.9,388.656 368.211,386.157 368.211,384.724 363.887,387.201 		"/>
		<g>
			<path style="fill:#9E9D9D;" d="M319.506,341.693c-2.772-1.525-2.833-4.065-0.168-5.701l12.088-7.405
				c2.677-1.636,7.079-1.744,9.849-0.235l19.527,10.671c2.764,1.512,2.84,4.068,0.169,5.705l-12.078,7.407
				c-2.677,1.643-7.093,1.748-9.856,0.23L319.506,341.693z"/>
		</g>
		<g>
			<g style="enable-background:new    ;">
				<path style="fill:#848484;" d="M369.388,432.792l-104.25-60.022v3.005c0,2.098,1.143,4.053,2.961,5.113l98.326,56.616
					c1.82,1.05,4.078,1.037,5.889-0.025l71.935-42.443c1.362-0.796,2.2-2.273,2.2-3.849v-1.917L369.388,432.792z"/>
				<g>
					<path style="fill:#EAE9E8;" d="M444.754,386.857c2.238,1.143,2.271,4.345,0.052,5.533l-75.418,40.401l-104.25-60.022
						l75.242-33.945c3.432-1.538,7.401-1.452,10.754,0.251L444.754,386.857z"/>
				</g>
			</g>
		</g>
		<g>
			<g>
				<path style="fill:#898686;" d="M410.149,402.755c0.938,0.544,1.916,2.795-1.777,4.375l-33.42,18.241
					c-2.756,1.703-5.108,0.159-7.672-1.309l-88.071-50.713c-1.954-1.136-1.387-2.903,0.007-3.715l32.182-20.305
					c1.789-1.038,3.859-1.473,5.167-0.723L410.149,402.755z"/>
			</g>
			<g>
				<path style="fill:#4A4A4A;" d="M335.774,360.485c0.424,0.242,0.424,0.646,0,0.891l-4.461,2.592c-0.42,0.245-1.113,0.245-1.541,0
					l-4.481-2.592c-0.43-0.245-0.436-0.649-0.004-0.894l4.461-2.588c0.423-0.255,1.116-0.249,1.543,0L335.774,360.485z"/>
			</g>
			<g>
				<path style="fill:#4A4A4A;" d="M313.875,383.81c0.43,0.252,0.43,0.653,0,0.907l-4.451,2.582c-0.435,0.248-1.12,0.248-1.553,0
					l-4.477-2.591c-0.433-0.245-0.436-0.646-0.01-0.898l4.467-2.588c0.42-0.242,1.118-0.249,1.544,0L313.875,383.81z"/>
			</g>
			<g>
				<path style="fill:#4A4A4A;" d="M321.661,388.293c0.423,0.249,0.423,0.643,0,0.898l-4.46,2.585
					c-0.427,0.248-1.113,0.245-1.551-0.01l-4.478-2.582c-0.43-0.249-0.43-0.643-0.004-0.892l4.453-2.598
					c0.436-0.242,1.124-0.245,1.548,0.01L321.661,388.293z"/>
			</g>
			<g>
				<path style="fill:#4A4A4A;" d="M329.444,392.778c0.434,0.249,0.434,0.653,0.01,0.892l-4.456,2.591
					c-0.43,0.245-1.111,0.245-1.554,0l-4.473-2.598c-0.44-0.242-0.44-0.637-0.013-0.897l4.463-2.579c0.421-0.242,1.107-0.242,1.55,0
					L329.444,392.778z"/>
			</g>
			<g>
				<path style="fill:#4A4A4A;" d="M320.315,360.931c0.426,0.245,0.432,0.64,0,0.905l-4.468,2.588
					c-0.423,0.245-1.109,0.245-1.543-0.009l-12.304-7.109c-0.433-0.249-0.433-0.652-0.007-0.898l4.457-2.588
					c0.424-0.249,1.12-0.249,1.554,0L320.315,360.931z"/>
			</g>
			<g>
				<path style="fill:#4A4A4A;" d="M327.768,365.07c0.42,0.248,0.42,0.649,0,0.897l-4.457,2.585
					c-0.431,0.255-1.115,0.255-1.555,0.006l-4.473-2.591c-0.442-0.248-0.442-0.649-0.016-0.897l4.459-2.582
					c0.418-0.258,1.122-0.251,1.552,0L327.768,365.07z"/>
			</g>
			<g>
				<path style="fill:#4A4A4A;" d="M336.172,369.902c0.427,0.245,0.427,0.649,0,0.894l-4.453,2.595
					c-0.428,0.245-1.111,0.245-1.548,0l-4.488-2.595c-0.43-0.245-0.43-0.649,0-0.894l4.456-2.582c0.418-0.255,1.118-0.255,1.552,0
					L336.172,369.902z"/>
			</g>
			<g>
				<path style="fill:#4A4A4A;" d="M343.983,374.435c0.43,0.245,0.43,0.636,0.007,0.888l-4.44,2.579
					c-0.43,0.264-1.124,0.264-1.557,0l-4.492-2.585c-0.427-0.246-0.427-0.644,0-0.898l4.463-2.579c0.421-0.258,1.111-0.258,1.547,0
					L343.983,374.435z"/>
			</g>
			<g>
				<path style="fill:#4A4A4A;" d="M351.813,378.946c0.43,0.242,0.43,0.637,0,0.898l-4.454,2.579c-0.41,0.245-1.104,0.245-1.544,0
					l-4.483-2.588c-0.426-0.251-0.432-0.653,0-0.898l4.461-2.579c0.417-0.254,1.105-0.254,1.527,0L351.813,378.946z"/>
			</g>
			<g>
				<path style="fill:#4A4A4A;" d="M312.757,365.318c0.43,0.242,0.43,0.649,0.01,0.895l-4.45,2.591c-0.43,0.245-1.134,0.245-1.554,0
					l-12.311-7.109c-0.433-0.251-0.433-0.655-0.006-0.904l4.466-2.592c0.421-0.235,1.111-0.235,1.544,0L312.757,365.318z"/>
			</g>
			<g>
				<path style="fill:#4A4A4A;" d="M320.589,369.841c0.426,0.242,0.426,0.64,0,0.892l-4.45,2.585c-0.431,0.249-1.128,0.249-1.554,0
					l-4.482-2.585c-0.434-0.251-0.434-0.656-0.007-0.898l4.453-2.591c0.434-0.239,1.122-0.239,1.552,0L320.589,369.841z"/>
			</g>
			<g>
				<path style="fill:#4A4A4A;" d="M328.661,374.601c0.434,0.265,0.434,0.656,0.007,0.904l-4.46,2.591
					c-0.424,0.242-1.124,0.242-1.544,0l-4.481-2.591c-0.436-0.249-0.436-0.649-0.006-0.904l4.459-2.588
					c0.424-0.242,1.118-0.242,1.55,0L328.661,374.601z"/>
			</g>
			<g>
				<path style="fill:#4A4A4A;" d="M336.48,379.131c0.44,0.249,0.44,0.653,0.011,0.892l-4.459,2.588
					c-0.419,0.248-1.117,0.248-1.543,0.003l-4.482-2.594c-0.439-0.242-0.439-0.647-0.012-0.898l4.455-2.585
					c0.43-0.242,1.122-0.242,1.542,0L336.48,379.131z"/>
			</g>
			<g>
				<path style="fill:#4A4A4A;" d="M337.279,397.29c0.428,0.254,0.428,0.668,0,0.907l-4.46,2.585c-0.43,0.248-1.117,0.248-1.55,0
					l-4.477-2.585c-0.43-0.251-0.433-0.653-0.006-0.907l4.459-2.585c0.418-0.249,1.112-0.249,1.538,0L337.279,397.29z"/>
			</g>
			<g>
				<path style="fill:#4A4A4A;" d="M359.64,383.463c0.424,0.242,0.424,0.653,0,0.889l-4.453,2.6c-0.424,0.242-1.118,0.242-1.541,0
					l-4.484-2.6c-0.434-0.236-0.439-0.647-0.014-0.889l4.457-2.595c0.426-0.241,1.121-0.241,1.545,0L359.64,383.463z"/>
			</g>
			<g>
				<path style="fill:#4A4A4A;" d="M344.31,383.639c0.422,0.254,0.426,0.656,0,0.901l-4.448,2.592c-0.426,0.238-1.118,0.238-1.55,0
					l-4.489-2.592c-0.426-0.245-0.426-0.652,0-0.901l4.454-2.585c0.424-0.242,1.116-0.242,1.54,0L344.31,383.639z"/>
			</g>
			<g>
				<path style="fill:#4A4A4A;" d="M352.13,388.169c0.424,0.248,0.43,0.652,0.013,0.892l-4.466,2.588
					c-0.423,0.249-1.111,0.251-1.547,0l-4.48-2.588c-0.43-0.239-0.43-0.643-0.006-0.892l4.457-2.591c0.42-0.248,1.12-0.248,1.55,0
					L352.13,388.169z"/>
			</g>
			<g>
				<path style="fill:#4A4A4A;" d="M321.146,379.22c0.434,0.254,0.446,0.653,0.013,0.901l-4.45,2.579
					c-0.433,0.249-1.121,0.249-1.561,0l-4.481-2.579c-0.43-0.248-0.43-0.646,0-0.901l4.459-2.592c0.418-0.251,1.122-0.251,1.552,0
					L321.146,379.22z"/>
			</g>
			<g>
				<path style="fill:#4A4A4A;" d="M328.975,383.741c0.427,0.239,0.427,0.652,0.01,0.895l-4.461,2.585
					c-0.427,0.261-1.114,0.261-1.547,0l-4.482-2.588c-0.431-0.242-0.431-0.653,0-0.892l4.453-2.591c0.417-0.254,1.111-0.254,1.548,0
					L328.975,383.741z"/>
			</g>
			<g>
				<path style="fill:#4A4A4A;" d="M336.805,388.261c0.424,0.255,0.424,0.647,0,0.888l-4.453,2.595
					c-0.427,0.245-1.117,0.245-1.557-0.003l-4.476-2.598c-0.426-0.235-0.44-0.64-0.007-0.882l4.457-2.595
					c0.424-0.235,1.114-0.235,1.544,0L336.805,388.261z"/>
			</g>
			<g>
				<path style="fill:#4A4A4A;" d="M344.621,392.778c0.436,0.249,0.436,0.653,0.013,0.892l-4.461,2.591
					c-0.433,0.245-1.116,0.245-1.543,0l-4.488-2.594c-0.428-0.245-0.428-0.64-0.014-0.889l4.457-2.591
					c0.433-0.242,1.127-0.242,1.557,0L344.621,392.778z"/>
			</g>
			<g>
				<path style="fill:#4A4A4A;" d="M345.096,401.816c0.432,0.245,0.432,0.646,0.006,0.891l-4.457,2.592
					c-0.435,0.252-1.117,0.252-1.554,0l-4.473-2.592c-0.436-0.245-0.436-0.646,0-0.891l4.451-2.591c0.423-0.255,1.123-0.255,1.549,0
					L345.096,401.816z"/>
			</g>
			<g>
				<path style="fill:#4A4A4A;" d="M368.545,388.567c0.424,0.254,0.43,0.659,0,0.895l-4.451,2.588c-0.427,0.246-1.117,0.246-1.543,0
					l-4.487-2.588c-0.43-0.245-0.43-0.649-0.006-0.897l4.457-2.592c0.421-0.245,1.117-0.245,1.541,0L368.545,388.567z"/>
			</g>
			<g>
				<path style="fill:#4A4A4A;" d="M359.959,392.68c0.424,0.258,0.424,0.653,0,0.895l-4.457,2.591c-0.421,0.258-1.12,0.258-1.55,0
					l-4.477-2.579c-0.434-0.254-0.434-0.649,0-0.907l4.446-2.585c0.434-0.254,1.118-0.254,1.545,0L359.959,392.68z"/>
			</g>
			<g>
				<path style="fill:#4A4A4A;" d="M352.439,397.29c0.436,0.254,0.442,0.668,0,0.907l-4.448,2.585c-0.419,0.242-1.116,0.242-1.54,0
					l-4.489-2.585c-0.423-0.251-0.43-0.653,0-0.907l4.451-2.582c0.432-0.251,1.114-0.251,1.545-0.003L352.439,397.29z"/>
			</g>
			<g>
				<path style="fill:#4A4A4A;" d="M290.664,370.172c0.433,0.249,0.439,0.64,0,0.895l-4.451,2.595c-0.42,0.246-1.116,0.246-1.54,0
					l-4.486-2.591c-0.432-0.258-0.432-0.649-0.015-0.898l4.466-2.585c0.423-0.258,1.117-0.258,1.543,0L290.664,370.172z"/>
			</g>
			<g>
				<path style="fill:#4A4A4A;" d="M298.133,374.454c0.419,0.255,0.436,0.653,0.01,0.911l-4.461,2.582
					c-0.424,0.249-1.114,0.249-1.55,0l-4.483-2.582c-0.426-0.258-0.426-0.656,0-0.911l4.457-2.594c0.424-0.245,1.114-0.245,1.548,0
					L298.133,374.454z"/>
			</g>
			<g>
				<path style="fill:#4A4A4A;" d="M305.964,378.978c0.427,0.249,0.427,0.659,0,0.904l-4.454,2.591c-0.43,0.239-1.117,0.239-1.544,0
					l-4.488-2.598c-0.43-0.239-0.424-0.656-0.007-0.904l4.454-2.582c0.424-0.242,1.123-0.242,1.557,0L305.964,378.978z"/>
			</g>
			<g>
				<path style="fill:#4A4A4A;" d="M376.055,384.139c0.437,0.254,0.437,0.643,0.003,0.897l-4.447,2.588
					c-0.427,0.248-1.121,0.248-1.551,0l-35.775-20.67c-0.43-0.248-0.43-0.647-0.006-0.901l4.459-2.581
					c0.424-0.249,1.118-0.249,1.551,0L376.055,384.139z"/>
			</g>
			<g>
				<path style="fill:#4A4A4A;" d="M384.035,388.79c0.427,0.246,0.427,0.646,0,0.898l-4.453,2.576c-0.44,0.254-1.115,0.254-1.554,0
					l-4.473-2.579c-0.436-0.249-0.443-0.649-0.01-0.895l4.453-2.595c0.431-0.245,1.121-0.245,1.544,0L384.035,388.79z"/>
			</g>
			<g>
				<path style="fill:#4A4A4A;" d="M391.968,393.473c0.411,0.245,0.411,0.649,0,0.891l-4.472,2.598
					c-0.417,0.239-1.111,0.239-1.538,0l-4.486-2.598c-0.43-0.249-0.436-0.647-0.002-0.891l4.457-2.592
					c0.426-0.241,1.117-0.241,1.547,0.01L391.968,393.473z"/>
			</g>
			<path style="fill:#4A4A4A;" d="M376.204,393.253c0.43,0.251,0.43,0.652,0.013,0.892l-4.463,2.591
				c-0.427,0.255-1.12,0.255-1.548,0l-4.477-2.591c-0.433-0.242-0.444-0.64-0.003-0.892l4.458-2.585c0.417-0.249,1.11-0.249,1.534,0
				L376.204,393.253z"/>
			<g>
				<path style="fill:#4A4A4A;" d="M297.865,365.207c0.433,0.248,0.433,0.652,0.009,0.895l-4.459,2.595
					c-0.43,0.238-1.121,0.238-1.544,0l-4.489-2.595c-0.43-0.258-0.43-0.647-0.007-0.898l4.464-2.591
					c0.426-0.246,1.121-0.246,1.553,0.006L297.865,365.207z"/>
			</g>
			<g>
				<path style="fill:#4A4A4A;" d="M305.684,369.727c0.426,0.248,0.426,0.642,0.006,0.894l-4.444,2.595
					c-0.441,0.245-1.126,0.245-1.554,0l-4.487-2.595c-0.427-0.251-0.434-0.646,0-0.894l4.453-2.591c0.424-0.251,1.117-0.242,1.545,0
					L305.684,369.727z"/>
			</g>
			<g>
				<path style="fill:#4A4A4A;" d="M313.511,374.241c0.434,0.251,0.434,0.659,0,0.898l-4.453,2.591c-0.426,0.248-1.111,0.248-1.55,0
					l-4.476-2.591c-0.427-0.239-0.427-0.653-0.006-0.898l4.453-2.588c0.422-0.246,1.124-0.246,1.547,0L313.511,374.241z"/>
			</g>
			<g>
				<path style="fill:#4A4A4A;" d="M367.92,397.764c0.431,0.246,0.431,0.665,0.007,0.907l-4.46,2.579
					c-0.421,0.255-1.124,0.251-1.55,0l-4.477-2.579c-0.434-0.245-0.434-0.662-0.01-0.907l4.451-2.585
					c0.436-0.239,1.123-0.239,1.553,0L367.92,397.764z"/>
			</g>
			<g>
				<path style="fill:#4A4A4A;" d="M376.671,402.221c0.434,0.254,0.434,0.656,0.008,0.898l-4.457,2.588
					c-0.424,0.251-1.117,0.251-1.554,0.003l-4.479-2.591c-0.436-0.242-0.436-0.65-0.017-0.901l4.461-2.588
					c0.43-0.245,1.12-0.245,1.55,0L376.671,402.221z"/>
			</g>
			<g>
				<path style="fill:#4A4A4A;" d="M391.776,411.134c0.441,0.249,0.441,0.65,0.012,0.895l-4.457,2.588
					c-0.428,0.242-1.121,0.242-1.555,0l-12.291-7.109c-0.438-0.251-0.438-0.649-0.007-0.891l4.451-2.591
					c0.427-0.255,1.12-0.255,1.544,0L391.776,411.134z"/>
			</g>
			<g>
				<path style="fill:#4A4A4A;" d="M360.267,401.816c0.438,0.245,0.438,0.646,0.014,0.891l-4.457,2.592
					c-0.43,0.252-1.13,0.252-1.554,0l-4.485-2.592c-0.43-0.245-0.43-0.646-0.006-0.891l4.46-2.591c0.423-0.255,1.117-0.255,1.54,0
					L360.267,401.816z"/>
			</g>
			<g>
				<path style="fill:#4A4A4A;" d="M368.245,406.617c0.424,0.242,0.424,0.64,0,0.891l-4.46,2.588c-0.427,0.255-1.12,0.255-1.544,0
					l-4.482-2.588c-0.433-0.251-0.438-0.659-0.007-0.898l4.451-2.585c0.433-0.255,1.121-0.255,1.551,0L368.245,406.617z"/>
			</g>
			<g>
				<path style="fill:#4A4A4A;" d="M383.742,415.381c0.427,0.242,0.427,0.646,0,0.891l-4.457,2.582
					c-0.417,0.251-1.116,0.251-1.537,0l-12.316-7.109c-0.421-0.245-0.43-0.656,0-0.891l4.463-2.595c0.42-0.242,1.11-0.242,1.537,0
					L383.742,415.381z"/>
			</g>
			<g>
				<path style="fill:#4A4A4A;" d="M352.897,406.095c0.428,0.258,0.43,0.649,0,0.898l-4.45,2.584c-0.42,0.249-1.128,0.249-1.55,0
					l-4.477-2.591c-0.439-0.242-0.439-0.642-0.009-0.891l4.459-2.588c0.424-0.252,1.12-0.249,1.547,0L352.897,406.095z"/>
			</g>
			<g>
				<path style="fill:#4A4A4A;" d="M376.366,419.657c0.431,0.248,0.431,0.64,0.01,0.892l-4.457,2.588
					c-0.424,0.251-1.124,0.251-1.548,0l-12.308-7.106c-0.43-0.245-0.43-0.649,0-0.901l4.457-2.581c0.428-0.255,1.111-0.255,1.539,0
					L376.366,419.657z"/>
			</g>
			<g>
				<path style="fill:#4A4A4A;" d="M399.737,397.967c0.426,0.242,0.426,0.644,0,0.889l-4.448,2.591c-0.427,0.245-1.12,0.245-1.55,0
					l-4.486-2.591c-0.43-0.245-0.43-0.646,0-0.889l4.453-2.594c0.424-0.245,1.118-0.251,1.545,0L399.737,397.967z"/>
			</g>
			<g>
				<path style="fill:#4A4A4A;" d="M407.698,402.418c0.434,0.251,0.434,0.647,0,0.888l-4.453,2.595
					c-0.427,0.245-1.124,0.245-1.541,0l-4.498-2.595c-0.417-0.242-0.424-0.637,0-0.888l4.453-2.591c0.426-0.239,1.126-0.239,1.55,0
					L407.698,402.418z"/>
			</g>
			<path style="fill:#636363;" d="M393.739,401.447l-4.486-2.591c-0.22-0.118-0.318-0.284-0.318-0.443l-0.006,0.879
				c0,0.169,0.104,0.331,0.324,0.462l4.486,2.581V401.447z"/>
			<path style="fill:#3D3D3D;" d="M400.063,398.419c0,0.153-0.116,0.318-0.326,0.437l-4.448,2.591c-0.427,0.245-1.12,0.245-1.55,0
				v0.888c0.423,0.245,1.123,0.245,1.543,0l4.455-2.581c0.21-0.127,0.32-0.287,0.326-0.453V398.419z"/>
			<path style="fill:#636363;" d="M401.69,405.882l-4.484-2.594c-0.211-0.121-0.319-0.284-0.319-0.446l-0.006,0.895
				c0,0.168,0.108,0.328,0.325,0.452l4.484,2.588V405.882z"/>
			<path style="fill:#3D3D3D;" d="M408.014,402.848c0,0.163-0.108,0.325-0.315,0.446l-4.453,2.588c-0.427,0.248-1.124,0.248-1.555,0
				v0.895c0.431,0.242,1.119,0.251,1.541,0l4.467-2.588c0.207-0.121,0.315-0.284,0.315-0.452V402.848z"/>
			<path style="fill:#636363;" d="M329.772,363.968l-4.481-2.592c-0.218-0.124-0.319-0.28-0.319-0.452v0.892
				c0,0.162,0.102,0.335,0.315,0.449l4.483,2.588L329.772,363.968z"/>
			<path style="fill:#3D3D3D;" d="M336.099,360.931c0,0.172-0.108,0.322-0.324,0.446l-4.461,2.592c-0.42,0.245-1.113,0.245-1.541,0
				l-0.002,0.885c0.43,0.254,1.123,0.254,1.543,0l4.461-2.581c0.21-0.121,0.324-0.287,0.324-0.449V360.931z"/>
			<path style="fill:#636363;" d="M307.804,387.22l-4.485-2.588c-0.208-0.124-0.318-0.29-0.318-0.44v0.892
				c-0.013,0.156,0.102,0.312,0.318,0.446l4.485,2.582V387.22z"/>
			<path style="fill:#3D3D3D;" d="M314.123,384.192c0,0.16-0.099,0.315-0.311,0.443l-4.465,2.585c-0.422,0.261-1.119,0.261-1.543,0
				v0.892c0.424,0.252,1.121,0.252,1.543,0l4.459-2.582c0.206-0.124,0.312-0.287,0.317-0.446V384.192z"/>
			<path style="fill:#636363;" d="M315.622,391.744l-4.48-2.601c-0.225-0.112-0.327-0.277-0.321-0.439l-0.013,0.892
				c0,0.165,0.108,0.325,0.334,0.516l4.48,2.588V391.744z"/>
			<path style="fill:#3D3D3D;" d="M321.944,388.704c0,0.169-0.095,0.332-0.318,0.446l-4.456,2.595c-0.418,0.245-1.112,0.245-1.548,0
				v0.888c0.436,0.249,1.13,0.255,1.548,0.006l4.456-2.594c0.208-0.121,0.316-0.283,0.316-0.449L321.944,388.704z"/>
			<path style="fill:#636363;" d="M323.444,396.261l-4.473-2.598c-0.219-0.121-0.328-0.29-0.328-0.44v0.885
				c-0.004,0.168,0.109,0.328,0.318,0.458l4.482,2.591V396.261z"/>
			<path style="fill:#3D3D3D;" d="M329.771,393.237c0,0.153-0.1,0.306-0.316,0.433l-4.456,2.591c-0.43,0.245-1.111,0.245-1.554,0
				v0.898c0.442,0.239,1.124,0.239,1.541,0l4.467-2.591c0.219-0.128,0.318-0.284,0.318-0.446V393.237z"/>
			<path style="fill:#636363;" d="M314.305,364.414l-12.304-7.109c-0.217-0.134-0.318-0.284-0.318-0.449l-0.008,0.895
				c0.008,0.168,0.109,0.321,0.319,0.445l12.311,7.112V364.414z"/>
			<path style="fill:#3D3D3D;" d="M320.63,361.38c-0.006,0.168-0.108,0.331-0.315,0.455l-4.468,2.588
				c-0.423,0.245-1.109,0.245-1.543-0.009v0.894c0.421,0.245,1.12,0.245,1.543,0l4.468-2.591c0.207-0.121,0.309-0.283,0.309-0.439
				L320.63,361.38z"/>
			<path style="fill:#636363;" d="M321.757,368.559l-4.473-2.591c-0.227-0.131-0.334-0.284-0.328-0.449l-0.006,0.888
				c0,0.152,0.107,0.325,0.324,0.452l4.482,2.589V368.559z"/>
			<path style="fill:#3D3D3D;" d="M328.085,365.525c-0.006,0.165-0.11,0.311-0.316,0.442l-4.457,2.585
				c-0.431,0.255-1.115,0.255-1.555,0.006v0.889c0.427,0.247,1.124,0.247,1.547,0l4.465-2.583c0.206-0.117,0.311-0.28,0.311-0.452
				L328.085,365.525z"/>
			<path style="fill:#636363;" d="M330.171,373.391l-4.488-2.595c-0.213-0.13-0.328-0.283-0.328-0.448v0.891
				c0,0.159,0.105,0.334,0.328,0.458l4.488,2.585V373.391z"/>
			<path style="fill:#3D3D3D;" d="M336.483,370.364c0.008,0.156-0.092,0.305-0.312,0.433l-4.453,2.595
				c-0.428,0.245-1.111,0.245-1.548,0v0.892c0.426,0.254,1.12,0.254,1.548,0l4.453-2.585c0.213-0.121,0.309-0.29,0.309-0.445
				L336.483,370.364z"/>
			<path style="fill:#636363;" d="M337.993,377.902l-4.492-2.585c-0.213-0.125-0.313-0.29-0.313-0.446l-0.006,0.888
				c0,0.163,0.105,0.331,0.318,0.453l4.483,2.582L337.993,377.902z"/>
			<path style="fill:#3D3D3D;" d="M344.31,374.875c0,0.16-0.104,0.331-0.319,0.449l-4.44,2.579c-0.43,0.264-1.124,0.264-1.557,0
				l-0.01,0.891c0.442,0.255,1.126,0.255,1.554,0l4.453-2.575c0.216-0.128,0.319-0.28,0.319-0.452V374.875z"/>
			<path style="fill:#636363;" d="M345.814,382.423l-4.483-2.588c-0.216-0.125-0.323-0.286-0.32-0.445l-0.003,0.885
				c0,0.162,0.107,0.331,0.323,0.458l4.478,2.591L345.814,382.423z"/>
			<path style="fill:#3D3D3D;" d="M352.142,379.396c0,0.159-0.11,0.314-0.33,0.449l-4.454,2.579c-0.41,0.245-1.104,0.245-1.544,0
				l-0.006,0.901c0.423,0.248,1.126,0.242,1.55,0l4.454-2.591c0.22-0.121,0.324-0.287,0.324-0.446L352.142,379.396z"/>
			<path style="fill:#636363;" d="M306.763,368.804l-12.311-7.109c-0.217-0.127-0.318-0.286-0.318-0.458v0.901
				c-0.006,0.159,0.102,0.318,0.318,0.446l12.311,7.111V368.804z"/>
			<path style="fill:#3D3D3D;" d="M313.079,365.773c0,0.153-0.1,0.315-0.313,0.44l-4.45,2.591c-0.43,0.245-1.134,0.245-1.554,0
				v0.891c0.42,0.239,1.124,0.239,1.554-0.006l4.45-2.582c0.204-0.13,0.313-0.29,0.313-0.452V365.773z"/>
			<path style="fill:#636363;" d="M314.585,373.318l-4.482-2.585c-0.217-0.127-0.326-0.293-0.326-0.455v0.885
				c0,0.169,0.104,0.331,0.326,0.452l4.482,2.595V373.318z"/>
			<path style="fill:#3D3D3D;" d="M320.907,370.287c0,0.159-0.112,0.319-0.318,0.446l-4.45,2.585c-0.431,0.249-1.128,0.249-1.554,0
				v0.892c0.426,0.245,1.123,0.245,1.537,0l4.467-2.595c0.206-0.118,0.314-0.27,0.303-0.433L320.907,370.287z"/>
			<path style="fill:#636363;" d="M322.664,378.096l-4.481-2.591c-0.221-0.128-0.325-0.29-0.325-0.449l-0.007,0.892
				c0,0.156,0.111,0.322,0.326,0.456l4.483,2.582L322.664,378.096z"/>
			<path style="fill:#3D3D3D;" d="M328.984,375.056c0,0.169-0.108,0.329-0.316,0.449l-4.46,2.591c-0.424,0.242-1.124,0.242-1.544,0
				l-0.004,0.888c0.424,0.251,1.118,0.251,1.548-0.006l4.46-2.575c0.208-0.125,0.316-0.299,0.316-0.449V375.056z"/>
			<path style="fill:#636363;" d="M330.489,382.614l-4.482-2.594c-0.223-0.115-0.334-0.281-0.324-0.449l-0.01,0.898
				c0,0.159,0.105,0.318,0.322,0.448l4.488,2.586L330.489,382.614z"/>
			<path style="fill:#3D3D3D;" d="M336.805,379.577c0,0.169-0.107,0.328-0.313,0.446l-4.459,2.588
				c-0.419,0.248-1.117,0.248-1.543,0.003l-0.006,0.888c0.432,0.255,1.13,0.255,1.549,0l4.451-2.586
				c0.214-0.13,0.321-0.283,0.321-0.442V379.577z"/>
			<path style="fill:#636363;" d="M331.27,400.782l-4.477-2.585c-0.222-0.13-0.323-0.293-0.323-0.458l-0.008,0.889
				c0,0.178,0.109,0.334,0.325,0.461l4.476,2.581L331.27,400.782z"/>
			<path style="fill:#3D3D3D;" d="M337.591,397.745c0,0.16-0.107,0.328-0.311,0.452l-4.46,2.585c-0.43,0.248-1.117,0.248-1.55,0
				l-0.007,0.888c0.434,0.249,1.127,0.249,1.557,0l4.46-2.581c0.197-0.128,0.311-0.283,0.311-0.452V397.745z"/>
			<path style="fill:#636363;" d="M353.646,386.953l-4.484-2.6c-0.215-0.118-0.325-0.274-0.332-0.452v0.891
				c0,0.169,0.105,0.334,0.328,0.462l4.488,2.588V386.953z"/>
			<path style="fill:#3D3D3D;" d="M359.959,383.903c0,0.175-0.108,0.331-0.319,0.449l-4.453,2.6c-0.424,0.242-1.118,0.242-1.541,0
				v0.888c0.423,0.242,1.117,0.242,1.537,0l4.457-2.588c0.211-0.128,0.319-0.287,0.319-0.442V383.903z"/>
			<path style="fill:#636363;" d="M338.311,387.131l-4.489-2.592c-0.217-0.13-0.328-0.286-0.328-0.452v0.895
				c0,0.156,0.111,0.328,0.328,0.452l4.482,2.591L338.311,387.131z"/>
			<path style="fill:#3D3D3D;" d="M344.634,384.094c0,0.16-0.108,0.322-0.324,0.446l-4.448,2.592c-0.426,0.238-1.118,0.238-1.55,0
				l-0.008,0.894c0.434,0.249,1.125,0.249,1.558-0.003l4.448-2.585c0.216-0.124,0.317-0.283,0.317-0.439L344.634,384.094z"/>
			<path style="fill:#636363;" d="M346.13,391.648l-4.48-2.588c-0.226-0.124-0.319-0.281-0.319-0.455l-0.006,0.901
				c0.006,0.159,0.1,0.321,0.325,0.445l4.48,2.595V391.648z"/>
			<path style="fill:#3D3D3D;" d="M352.448,388.615c0,0.175-0.099,0.321-0.306,0.446l-4.466,2.588c-0.423,0.249-1.111,0.251-1.547,0
				v0.898c0.435,0.245,1.124,0.245,1.547,0l4.466-2.588c0.201-0.131,0.306-0.287,0.306-0.452V388.615z"/>
			<path style="fill:#636363;" d="M315.147,382.7l-4.481-2.579c-0.204-0.121-0.319-0.296-0.319-0.458v0.897
				c-0.003,0.16,0.1,0.328,0.319,0.446l4.481,2.591V382.7z"/>
			<path style="fill:#3D3D3D;" d="M321.468,379.669c0,0.159-0.097,0.331-0.31,0.452l-4.45,2.579c-0.433,0.249-1.121,0.249-1.561,0
				v0.897c0.434,0.245,1.128,0.245,1.551,0l4.46-2.591c0.207-0.118,0.31-0.286,0.31-0.439V379.669z"/>
			<path style="fill:#636363;" d="M322.977,387.22l-4.482-2.588c-0.216-0.127-0.321-0.29-0.321-0.443v0.885
				c0,0.166,0.105,0.322,0.321,0.456l4.482,2.582V387.22z"/>
			<path style="fill:#3D3D3D;" d="M329.302,384.192c0,0.16-0.115,0.315-0.317,0.443l-4.461,2.585c-0.427,0.261-1.114,0.261-1.547,0
				v0.892c0.423,0.252,1.12,0.252,1.547,0l4.461-2.573c0.202-0.133,0.312-0.296,0.312-0.455L329.302,384.192z"/>
			<path style="fill:#636363;" d="M330.795,391.741l-4.476-2.598c-0.22-0.112-0.332-0.277-0.332-0.439v0.892
				c0,0.165,0.112,0.325,0.325,0.449l4.482,2.588V391.741z"/>
			<path style="fill:#3D3D3D;" d="M337.131,388.716c0,0.156-0.108,0.319-0.326,0.433l-4.453,2.595
				c-0.427,0.245-1.117,0.245-1.557-0.003v0.891c0.439,0.255,1.117,0.249,1.557,0l4.453-2.588c0.21-0.121,0.313-0.283,0.319-0.446
				L337.131,388.716z"/>
			<path style="fill:#636363;" d="M338.63,396.261l-4.488-2.594c-0.214-0.124-0.326-0.277-0.319-0.443l-0.007,0.885
				c0,0.168,0.106,0.328,0.318,0.458l4.489,2.591L338.63,396.261z"/>
			<path style="fill:#3D3D3D;" d="M344.951,393.237c0,0.153-0.118,0.306-0.317,0.433l-4.461,2.591c-0.433,0.245-1.116,0.245-1.543,0
				l-0.007,0.898c0.434,0.239,1.117,0.239,1.544,0l4.454-2.579c0.212-0.141,0.33-0.296,0.33-0.458V393.237z"/>
			<path style="fill:#636363;" d="M339.091,405.299l-4.473-2.592c-0.22-0.127-0.328-0.283-0.334-0.452v0.895
				c0,0.156,0.114,0.321,0.334,0.455l4.473,2.582V405.299z"/>
			<path style="fill:#3D3D3D;" d="M345.42,402.272c0,0.16-0.114,0.315-0.318,0.436l-4.457,2.592c-0.435,0.252-1.117,0.252-1.554,0
				v0.888c0.437,0.248,1.118,0.248,1.554,0l4.457-2.579c0.204-0.124,0.318-0.293,0.318-0.455V402.272z"/>
			<path style="fill:#636363;" d="M361.458,391.464l-4.473-2.591c-0.223-0.13-0.328-0.287-0.328-0.449l-0.01,0.889
				c0,0.169,0.115,0.337,0.338,0.455l4.473,2.591V391.464z"/>
			<path style="fill:#3D3D3D;" d="M368.86,389.022c0,0.163-0.102,0.315-0.315,0.439l-4.451,2.588c-0.427,0.246-1.117,0.246-1.543,0
				v0.895c0.423,0.245,1.11,0.245,1.543,0l4.451-2.598c0.214-0.118,0.315-0.273,0.315-0.436V389.022z"/>
			<path style="fill:#636363;" d="M353.952,396.165l-4.477-2.579c-0.217-0.133-0.328-0.299-0.318-0.461l-0.01,0.898
				c0,0.162,0.105,0.325,0.328,0.452l4.477,2.585V396.165z"/>
			<path style="fill:#3D3D3D;" d="M360.28,393.135c0,0.153-0.107,0.328-0.321,0.44l-4.457,2.591c-0.421,0.258-1.12,0.258-1.55,0
				v0.895c0.424,0.251,1.129,0.251,1.55,0l4.457-2.585c0.214-0.127,0.321-0.29,0.321-0.449V393.135z"/>
			<path style="fill:#636363;" d="M346.451,400.782l-4.489-2.585c-0.207-0.13-0.317-0.293-0.317-0.458l-0.004,0.889
				c0.004,0.178,0.108,0.334,0.321,0.461l4.486,2.581L346.451,400.782z"/>
			<path style="fill:#3D3D3D;" d="M352.77,397.745c0,0.16-0.107,0.328-0.33,0.452l-4.448,2.585c-0.419,0.242-1.116,0.242-1.54,0
				l-0.003,0.888c0.427,0.249,1.124,0.249,1.543,0l4.448-2.581c0.223-0.128,0.33-0.283,0.33-0.452V397.745z"/>
			<path style="fill:#636363;" d="M284.673,373.662l-4.486-2.591c-0.212-0.13-0.33-0.293-0.33-0.449v0.895
				c0,0.149,0.111,0.331,0.315,0.446l4.501,2.591V373.662z"/>
			<path style="fill:#3D3D3D;" d="M290.995,370.555c0,0.162-0.115,0.322-0.331,0.439l-4.444,2.595c-0.427,0.246-1.123,0.246-1.547,0
				v0.895c0.42,0.245,1.12,0.235,1.54-0.004l4.451-2.588c0.216-0.121,0.331-0.283,0.331-0.442V370.555z"/>
			<path style="fill:#636363;" d="M292.132,377.947l-4.483-2.582c-0.21-0.134-0.317-0.293-0.317-0.458l-0.007,0.891
				c0,0.156,0.103,0.315,0.318,0.455l4.489,2.579V377.947z"/>
			<path style="fill:#3D3D3D;" d="M298.454,374.913c0,0.165-0.102,0.321-0.312,0.452l-4.461,2.582c-0.424,0.249-1.114,0.249-1.55,0
				v0.885c0.426,0.258,1.126,0.258,1.55,0l4.461-2.579c0.21-0.124,0.312-0.295,0.312-0.443V374.913z"/>
			<path style="fill:#636363;" d="M299.966,382.474l-4.488-2.598c-0.223-0.124-0.324-0.293-0.324-0.458v0.9
				c0,0.166,0.094,0.322,0.317,0.456l4.489,2.585L299.966,382.474z"/>
			<path style="fill:#3D3D3D;" d="M306.282,379.427c0,0.156-0.108,0.325-0.318,0.455l-4.454,2.591c-0.43,0.239-1.117,0.239-1.544,0
				l-0.006,0.885c0.42,0.249,1.12,0.239,1.544,0l4.46-2.585c0.207-0.13,0.318-0.29,0.318-0.452V379.427z"/>
			<path style="fill:#636363;" d="M370.06,387.625l-35.926-20.849c-0.206-0.128-0.318-0.293-0.318-0.452v0.891
				c0,0.163,0.1,0.325,0.463,0.637l35.781,20.664V387.625z"/>
			<path style="fill:#636363;" d="M378.028,392.263l-4.473-2.579c-0.223-0.134-0.334-0.293-0.334-0.459l-0.008,0.889
				c0,0.172,0.119,0.331,0.342,0.458l4.473,2.588V392.263z"/>
			<path style="fill:#3D3D3D;" d="M384.357,389.239c0,0.156-0.112,0.318-0.322,0.449l-4.453,2.576c-0.44,0.254-1.115,0.254-1.554,0
				v0.897c0.424,0.242,1.114,0.242,1.554,0l4.453-2.588c0.21-0.127,0.322-0.286,0.322-0.455V389.239z"/>
			<path style="fill:#3D3D3D;" d="M376.382,384.61c-0.006,0.153-0.107,0.321-0.324,0.442l-4.447,2.588
				c-0.423,0.254-1.121,0.242-1.551,0v0.888c0.424,0.261,1.124,0.261,1.551,0l4.447-2.579c0.217-0.13,0.318-0.283,0.318-0.452
				L376.382,384.61z"/>
			<path style="fill:#636363;" d="M385.958,396.961l-4.486-2.598c-0.209-0.124-0.32-0.28-0.314-0.455v0.901
				c-0.007,0.165,0.092,0.322,0.314,0.449l4.474,2.595L385.958,396.961z"/>
			<path style="fill:#3D3D3D;" d="M392.281,393.918c0,0.165-0.105,0.325-0.313,0.445l-4.472,2.598c-0.417,0.239-1.111,0.239-1.538,0
				l-0.013,0.892c0.439,0.239,1.128,0.242,1.551,0l4.472-2.595c0.208-0.121,0.307-0.274,0.307-0.446L392.281,393.918z"/>
			<g>
				<g>
					<path style="fill:#4A4A4A;" d="M328.121,355.978c0.426,0.246,0.436,0.653,0.009,0.904l-4.453,2.579
						c-0.436,0.252-1.13,0.252-1.548,0l-12.308-7.109c-0.426-0.249-0.43-0.646-0.006-0.901l4.46-2.585
						c0.411-0.251,1.112-0.251,1.534,0L328.121,355.978z"/>
				</g>
				<path style="fill:#636363;" d="M322.129,359.46l-12.308-7.109c-0.219-0.121-0.324-0.29-0.324-0.455v0.901
					c0,0.156,0.105,0.315,0.318,0.446l12.308,7.108L322.129,359.46z"/>
				<path style="fill:#3D3D3D;" d="M328.445,356.423c0,0.166-0.101,0.328-0.315,0.458l-4.453,2.579c-0.436,0.252-1.13,0.252-1.548,0
					l-0.006,0.891c0.424,0.248,1.117,0.248,1.55,0l4.448-2.594c0.224-0.118,0.324-0.283,0.324-0.443V356.423z"/>
			</g>
			<path style="fill:#636363;" d="M370.206,396.735l-4.477-2.591c-0.219-0.121-0.324-0.284-0.33-0.449v0.898
				c-0.006,0.159,0.098,0.312,0.327,0.442l4.474,2.588L370.206,396.735z"/>
			<path style="fill:#3D3D3D;" d="M376.528,393.714c-0.006,0.153-0.107,0.315-0.311,0.43l-4.463,2.591
				c-0.427,0.255-1.12,0.255-1.548,0l-0.006,0.889c0.434,0.254,1.127,0.254,1.554,0l4.45-2.588c0.21-0.121,0.318-0.277,0.318-0.433
				L376.528,393.714z"/>
			<path style="fill:#636363;" d="M291.871,368.696l-4.489-2.595c-0.208-0.128-0.324-0.286-0.318-0.446l-0.016,0.892
				c0,0.153,0.126,0.321,0.334,0.449l4.489,2.588V368.696z"/>
			<path style="fill:#3D3D3D;" d="M298.186,365.662c0,0.159-0.105,0.312-0.313,0.44l-4.459,2.595c-0.43,0.238-1.121,0.238-1.544,0
				v0.888c0.42,0.251,1.114,0.251,1.537,0l4.457-2.579c0.216-0.137,0.321-0.293,0.321-0.455V365.662z"/>
			<path style="fill:#636363;" d="M299.691,373.216l-4.487-2.595c-0.217-0.124-0.319-0.292-0.319-0.452v0.892
				c-0.006,0.156,0.096,0.331,0.319,0.455l4.487,2.585V373.216z"/>
			<path style="fill:#3D3D3D;" d="M306.008,370.176c0,0.165-0.101,0.321-0.318,0.445l-4.444,2.595c-0.441,0.245-1.126,0.245-1.554,0
				v0.885c0.428,0.248,1.112,0.242,1.544,0l4.454-2.585c0.208-0.124,0.318-0.277,0.318-0.446V370.176z"/>
			<path style="fill:#636363;" d="M307.508,377.73l-4.476-2.591c-0.211-0.13-0.332-0.29-0.332-0.452v0.894
				c0,0.156,0.111,0.329,0.332,0.456l4.476,2.591V377.73z"/>
			<path style="fill:#3D3D3D;" d="M313.836,374.703c0,0.163-0.104,0.321-0.325,0.437l-4.453,2.591c-0.426,0.248-1.111,0.248-1.55,0
				v0.898c0.433,0.242,1.124,0.242,1.55-0.013l4.453-2.578c0.215-0.127,0.313-0.289,0.313-0.449L313.836,374.703z"/>
			<path style="fill:#636363;" d="M361.779,400.683l-4.485-2.588c-0.213-0.114-0.328-0.283-0.328-0.446v0.889
				c0,0.163,0.115,0.318,0.328,0.455l4.479,2.592L361.779,400.683z"/>
			<path style="fill:#3D3D3D;" d="M368.245,398.229c0,0.162-0.115,0.321-0.318,0.442l-4.46,2.579c-0.421,0.255-1.124,0.251-1.55,0
				v0.904c0.426,0.236,1.123,0.236,1.55,0l4.453-2.598c0.21-0.108,0.325-0.277,0.325-0.442V398.229z"/>
			<path style="fill:#636363;" d="M370.668,405.71l-4.479-2.591c-0.208-0.121-0.328-0.287-0.328-0.449v0.892
				c-0.007,0.159,0.114,0.324,0.318,0.455l4.488,2.585V405.71z"/>
			<path style="fill:#3D3D3D;" d="M376.99,402.669c0,0.166-0.1,0.335-0.311,0.449l-4.457,2.588
				c-0.424,0.251-1.117,0.251-1.554,0.003v0.892c0.437,0.249,1.13,0.249,1.548,0l4.455-2.582c0.214-0.134,0.319-0.296,0.319-0.452
				V402.669z"/>
			<path style="fill:#636363;" d="M385.776,414.617l-12.291-7.109c-0.223-0.13-0.328-0.286-0.328-0.455l-0.003,0.895
				c0,0.165,0.108,0.328,0.324,0.452l12.298,7.109V414.617z"/>
			<path style="fill:#3D3D3D;" d="M392.103,411.583c0,0.156-0.103,0.328-0.314,0.446l-4.457,2.588c-0.428,0.242-1.121,0.242-1.555,0
				v0.892c0.434,0.249,1.127,0.249,1.555,0l4.457-2.585c0.212-0.124,0.314-0.283,0.314-0.439V411.583z"/>
			<path style="fill:#636363;" d="M354.27,405.299l-4.485-2.592c-0.213-0.127-0.309-0.283-0.309-0.452v0.895
				c0,0.156,0.096,0.321,0.309,0.455l4.485,2.582V405.299z"/>
			<path style="fill:#3D3D3D;" d="M360.589,402.272c0,0.166-0.099,0.322-0.309,0.436l-4.457,2.592c-0.43,0.252-1.13,0.252-1.554,0
				v0.888c0.424,0.248,1.118,0.248,1.552,0l4.459-2.582c0.204-0.121,0.309-0.29,0.309-0.445V402.272z"/>
			<path style="fill:#636363;" d="M362.099,409.819l-4.479-2.588c-0.23-0.13-0.325-0.293-0.325-0.455l-0.013,0.895
				c0,0.162,0.108,0.322,0.332,0.449l4.485,2.594V409.819z"/>
			<path style="fill:#3D3D3D;" d="M368.563,407.063c0,0.169-0.112,0.329-0.318,0.446l-4.46,2.588c-0.427,0.255-1.12,0.255-1.544,0
				v0.886c0.424,0.257,1.117,0.257,1.541,0l4.463-2.582c0.206-0.121,0.303-0.28,0.309-0.436L368.563,407.063z"/>
			<path style="fill:#636363;" d="M377.748,418.854l-12.316-7.109c-0.214-0.118-0.319-0.283-0.319-0.442v0.885
				c0,0.166,0.105,0.319,0.319,0.452l12.31,7.096L377.748,418.854z"/>
			<path style="fill:#3D3D3D;" d="M384.064,415.831c0,0.152-0.106,0.318-0.322,0.442l-4.457,2.582c-0.417,0.251-1.116,0.251-1.537,0
				l-0.007,0.881c0.42,0.262,1.121,0.262,1.544,0l4.457-2.575c0.207-0.125,0.312-0.284,0.312-0.449L384.064,415.831z"/>
			<path style="fill:#636363;" d="M346.897,409.578l-4.477-2.591c-0.217-0.125-0.318-0.28-0.318-0.445v0.888
				c0,0.166,0.092,0.331,0.31,0.456l4.485,2.588V409.578z"/>
			<path style="fill:#3D3D3D;" d="M353.226,406.547c0.007,0.165-0.102,0.328-0.328,0.446l-4.45,2.584
				c-0.42,0.249-1.128,0.249-1.55,0v0.895c0.422,0.251,1.13,0.251,1.55,0l4.45-2.588c0.22-0.118,0.328-0.287,0.328-0.44V406.547z"/>
			<path style="fill:#636363;" d="M354.726,414.101l-4.477-2.594c-0.226-0.121-0.334-0.29-0.334-0.446v0.886
				c0,0.168,0.102,0.33,0.324,0.458l4.486,2.591V414.101z"/>
			<path style="fill:#3D3D3D;" d="M361.048,411.061c0,0.156-0.112,0.325-0.315,0.446l-4.457,2.594c-0.421,0.246-1.126,0.246-1.55,0
				v0.895c0.424,0.245,1.116,0.245,1.55,0l4.453-2.591c0.207-0.121,0.31-0.28,0.31-0.442L361.048,411.061z"/>
			<g>
				<path style="fill:#4A4A4A;" d="M360.72,410.619c0.439,0.239,0.439,0.64,0.013,0.888l-4.457,2.594
					c-0.421,0.246-1.126,0.246-1.55,0l-4.477-2.594c-0.436-0.248-0.436-0.649-0.01-0.895l4.448-2.585
					c0.426-0.251,1.116-0.251,1.55,0L360.72,410.619z"/>
			</g>
			<path style="fill:#636363;" d="M370.371,423.137l-12.308-7.106c-0.212-0.124-0.317-0.295-0.317-0.452l-0.009,0.897
				c0,0.157,0.114,0.325,0.326,0.436l12.299,7.115L370.371,423.137z"/>
			<path style="fill:#3D3D3D;" d="M376.688,420.105c0,0.163-0.101,0.315-0.313,0.443l-4.457,2.588c-0.424,0.251-1.124,0.251-1.548,0
				l-0.009,0.891c0.433,0.248,1.127,0.248,1.557,0l4.453-2.591c0.215-0.111,0.313-0.277,0.313-0.446L376.688,420.105z"/>
			<g>
				<g>
					<path style="fill:#4A4A4A;" d="M399.612,406.726c0.427,0.238,0.427,0.643,0,0.901l-4.447,2.582
						c-0.439,0.242-1.127,0.251-1.551,0l-19.763-11.448c-0.418-0.254-0.424-0.646,0-0.898l4.454-2.585
						c0.426-0.251,1.126-0.251,1.55,0L399.612,406.726z"/>
				</g>
				<path style="fill:#636363;" d="M393.614,410.208l-19.763-11.448c-0.208-0.124-0.318-0.286-0.318-0.452l-0.007,0.895
					c0,0.159,0.117,0.331,0.325,0.452l19.763,11.435V410.208z"/>
				<path style="fill:#3D3D3D;" d="M399.943,407.177c0,0.166-0.108,0.325-0.331,0.449l-4.447,2.588
					c-0.427,0.249-1.121,0.249-1.551,0v0.892c0.424,0.245,1.124,0.245,1.551,0l4.447-2.585c0.223-0.124,0.331-0.29,0.318-0.449
					L399.943,407.177z"/>
			</g>
		</g>
		<polygon style="fill:#1C1C1C;" points="383.921,428.284 388.065,425.89 388.065,424.512 383.921,426.896 		"/>
		<polygon style="fill:#1C1C1C;" points="390.819,424.381 394.965,421.994 394.958,420.615 390.81,422.99 		"/>
		<g>
			<path style="fill:#4EA054;" d="M410.337,364.067c0,0,3.091,4.46,3.314,6.172c0.226,1.716,0.238,3.426-1.48,3.655
				c-1.719,0.229-4.342-3.314-4.342-3.314L410.337,364.067z"/>
			<path style="fill:#F2CEB6;" d="M397.661,367.237c-4.395,1.471-9.265-3.495-10.608-7.491c-0.471-1.388-8.979,0.541-12.74-0.48
				c-3.962-1.063-3.135-5.045-2.365-5.912c0.615-0.669,5.461-0.344,14.056-1.051c11.107-0.901,21.056,1.712,22.396,5.708
				C409.732,362.014,402.042,365.763,397.661,367.237z"/>
			<path style="fill:#F2CEB6;" d="M412.964,364.296c-2.272-12.96-8.558-10.286-8.558-10.286s-23.311,2.174-28.454,5.485
				c-3.425,2.216-15.344,12.435-16.449,15.427c-1.152,3.088,4.34,5.144,4.34,5.144c6.834,4.789,14.035,1.436,14.035,1.436
				l18.296-5.896C414.619,371.64,413.935,369.784,412.964,364.296z"/>
			<path style="fill:#7AE584;" d="M410.999,362.685c2.573,6.065,0.948,11.247,1.172,11.209
				c18.276-3.425,59.436-19.712,71.753-24.675c22.962-9.258,17.48-31.192,17.48-31.192s-8.576-53.125-26.742-89.455
				c-9.391-18.78-28.107-1.375-26.047,21.246c1.156,12.642,6.38,34.862,14.743,52.327c6.291,13.139-4.575,22.852-4.575,22.852
				l-54.788,28.81C403.995,353.806,408.325,356.356,410.999,362.685z"/>
		</g>
		<path style="fill:#5BBA64;" d="M356.671,363.299c0,0-1.965-33.229-0.22-41.509c1.675-7.946-11.276-12.603-19.503-9.585
			c-5.867,2.155-8.496,4.307-9.91,10.569c-1.346,5.972,0.073,19.769,0.328,22.332c2.273,22.908,6.1,34.426,6.1,34.426
			L356.671,363.299z"/>
		<g>
			<path style="fill:#F2CEB6;" d="M338.903,360.03c1.795,4.266,1.471,4.779,5.354,3.127c1.357-0.573,6.657,0,5.785,4.734
				c-0.75,4.027,3.855,8.576,5.432,2.62c0.222-0.866,1.716-6.615,0.171-9.102c-7.36-11.922-14.167-13.211-18.044-11.569
				C333.727,351.485,337.114,355.767,338.903,360.03z"/>
			<path style="fill:#F2CEB6;" d="M329.018,353.348c0,0,7.198-4.03,10.33-4.03c7.189,0,10.019,5.921,10.019,5.921l0.917,2.174
				l3.092,15.029c0,0,3.502,10.7,2.969,15.24c-0.186,1.671-1.926,1.754-3.508,0.528c-1.353-1.06-3.333-9.229-4.897-8.939
				c-8.592,1.572-14.703-0.799-14.703-0.799l-6.145-13.737C324.94,360.037,324.635,355.799,329.018,353.348z"/>
		</g>
		<g style="enable-background:new    ;">
			<path style="fill:#8E8D8D;" d="M272.582,299.649c-1.369-0.793-3.057-0.784-4.409,0.031l-1.168,0.685l100.333,59.095l2.05,73.332
				l2.41-1.401v-69.632c0-3.154-1.697-6.099-4.438-7.665L272.582,299.649z"/>
			<g>
				<path style="fill:#D8D7D6;" d="M364.964,355.49c2.734,1.566,4.424,4.514,4.424,7.663v69.639l-104.25-60.022v-69.629
					c0-2.27,2.478-3.692,4.429-2.556L364.964,355.49z"/>
			</g>
		</g>
		<path style="fill:#20514E;" d="M444.571,206.102c-1.816-0.824-3.574-1.576-5.207-2.213c-2.245-0.878-4.463-1.372-15.08-2.747
			l-25.369-2.053l-1.321,1.309l-16.162,39.822l15.431,22.622l4.106-10.626l15.773-23.644L444.571,206.102z"/>
		<path style="fill:#E8C5AC;" d="M386.576,226.855c-0.09,1.356,3.508,12.231,11.188,11.292c16.804-2.054,17.559-18.207,18.978-25
			c1.713-8.233-6.169-12.69-6.169-12.69l-26.396-20.555l-23.305,31.532L386.576,226.855z"/>
		<path style="fill:#5BBA64;" d="M382.119,218.624l5.832,5.829c0,0-2.948,7.707-0.844,15.577c1.651,6.198,7.198,18.101,10.2,21.718
			c0.299,0.357-0.048,1.891-0.048,1.891s-6.915-7.296-14.797-17.245c-7.886-9.942-9.255-26.391-9.255-26.391L382.119,218.624z"/>
		<g>
			<path style="fill:#F2CEB6;" d="M375.252,150.414l-0.003,0.003l26.404,2.264l-3.327,41.742
				c-0.627,3.244-2.057,14.421-2.808,17.149c-0.837,2.977-1.859,6.186-6.915,9.121c0,0-12.698,8.379-17.786,9.461
				c-3.323,0.713-9.828-2.757-9.828-2.757c-3.851-2.85-7.306-10.012-8.802-18.885l-6.984-38.838l3.235-26.171L375.252,150.414z"/>
			<path style="fill:#935006;" d="M341.679,147.784c0.246-0.089,5.842,2.264,3.261,3.722c-5.817,3.279-8.51,7.268-7.472,6.618
				c1.785-1.121,6.412,7.36,7.611,10.85c0.487,1.414,6.638,7.972,23,0.678c4.678-2.079,12.547-2.734,17.525,10.261
				c1.051,2.76,2.834,8.997,3.637,12.766c0.9,4.24,0.967,2.337,1.133,2.404c0.92,0.379,1.703-6.402,3.371-10.12
				c0,0,1.617-4.973,5.825-4.024c5.031,1.143,0.249,12.711-0.098,13.292l9.384,4.886c0.408,0.312-1.317-2.776,0.217-6.437
				c4.253-10.139,4.617-11.826,5.625-14.965c4.101-12.686,0.564-25.691-8.102-35.184c-4.518-4.95-13.683-9.452-14.246-9.77
				c-5.956-3.435-16.49-4.797-15.854-4.47c2.009,1.032,3.323,3.272,1.009,3.279c-0.608,0-2.678-0.637-4.952-0.873
				c-1.714-0.168-8.899-0.757-8.364-0.439c2.961,1.716,3.286,3.216,1.169,3.744c-0.784,0.21-8.907-1.445-11.895-0.051
				c-0.41,0.194,5.409,4.749,4.251,4.804c-7.548,0.347-14.157,1.913-15.921,4.422c-0.29,0.401,2.884-2.639,6.121,0.385
				c1.112,1.035-0.524,0.799-3.54,2.422C342.746,146.868,341.679,147.784,341.679,147.784z"/>
			<path style="fill:#FFE1CC;" d="M398.647,179.775c-6.141-2.238-7.971,7.911-7.971,7.911l-1.417,11.423c0,0-0.032,4.266,2.56,4.746
				c3.021,0.557,5.369-1.404,7.421-5.011c0.11-0.201,3.136-5.281,3.291-5.593C404.817,188.724,404.744,182.029,398.647,179.775z"/>
		</g>
		<path style="fill:#7AE584;" d="M397.074,263.691c0,0,22.406-37.864,39.316-45.177c16.911-7.313,32.306,2.146,32.306,2.146
			s3.779-8.503-10.388-17.356c-13.017-8.137-24.437-6.73-32.662-0.786c-8.216,5.937-20.116,25.478-24.678,37.364
			C395.779,253.428,397.074,263.691,397.074,263.691z"/>
		<g>
			<g>
				<path style="fill:#06123F;" d="M315.426,370.908c-0.258-0.082-0.517-0.169-0.775-0.262l0.46,6.134
					c-0.011,0.159-0.214,3.171,3.196,5.14c0.021,0.012,0.043,0.024,0.064,0.037l0.994,0.562c0.281,0.159,0.533,0.045,0.496-0.315
					c-0.075-0.735-0.663-1.564-1.366-1.97c-0.008-0.005-0.016-0.009-0.024-0.014l-0.772-0.438c-0.014-0.008-0.028-0.017-0.043-0.025
					c-1.304-0.753-1.525-1.589-1.56-2.441L315.426,370.908z"/>
			</g>
			<g>
				<path style="fill:#0B1375;" d="M319.859,371.689c-0.111-0.002-0.221-0.005-0.331-0.01
					C319.639,371.684,319.748,371.687,319.859,371.689z"/>
			</g>
			<g>
				<path style="fill:#0B1375;" d="M320.643,371.674c-0.043,0.002-0.085,0.005-0.128,0.007
					C320.559,371.679,320.601,371.676,320.643,371.674z"/>
			</g>
			<g>
				<path style="fill:#0B1375;" d="M321.493,371.597c-0.066,0.009-0.135,0.017-0.201,0.024
					C321.358,371.613,321.427,371.605,321.493,371.597z"/>
			</g>
			<g>
				<path style="fill:#0B1375;" d="M325.261,370.221c-0.092,0.06-0.184,0.117-0.276,0.172
					C325.077,370.338,325.169,370.281,325.261,370.221z"/>
			</g>
			<g>
				<path style="fill:#0B1375;" d="M326.363,369.376c-0.076,0.068-0.155,0.136-0.233,0.201
					C326.208,369.512,326.287,369.444,326.363,369.376z"/>
			</g>
			<g style="enable-background:new    ;">
				<g style="enable-background:new    ;">
					<defs>
						<path id="SVGID_1_" style="enable-background:new    ;" d="M284.348,347.098c-0.022,8.081,2.693,17.257,7.649,25.841
							C287.041,364.355,284.325,355.179,284.348,347.098z"/>
					</defs>
					<clipPath id="SVGID_00000181071168093554874190000000251157335242468263_">
						<use xlink:href="#SVGID_1_"  style="overflow:visible;"/>
					</clipPath>
					<g style="clip-path:url(#SVGID_00000181071168093554874190000000251157335242468263_);enable-background:new    ;">
						<path style="fill:#FF0000;" d="M284.348,347.098c-0.022,8.081,2.693,17.257,7.649,25.841
							C287.041,364.355,284.325,355.179,284.348,347.098"/>
					</g>
				</g>
				<g>
					<path style="fill:#06123F;" d="M303.375,370.236l-3.645,2.077c0.07,0.082,0.151,0.15,0.234,0.198
						c0.065,0.038,0.132,0.064,0.196,0.073l0.934,0.136c2.387,0.346,2.295-1.935,2.29-2.056L303.375,370.236z"/>
				</g>
				<g>
					<path style="fill:#3543B0;" d="M295.212,348.965c-2.222-1.145-4.785,1.018-4.345,4.321c0.303,2.268,1.873,4.651,3.953,6.414
						c-1.653-1.401-2.984-3.196-3.613-5.013c1.111,1.266,2.46,2.385,3.903,3.219c0.433,0.249,0.872,0.472,1.316,0.667
						c3.864,1.692,5.6,0.898,5.571-1.657c0.224,0.556,0.402,1.102,0.528,1.624c-0.126-0.521-0.303-1.064-0.526-1.618
						c-0.749-1.861-2.011-3.839-3.541-5.443c-0.263-0.276-0.534-0.541-0.814-0.792c-0.607-0.55-1.247-1.035-1.906-1.429
						c-0.043-0.026-0.088-0.052-0.131-0.077C295.477,349.104,295.344,349.033,295.212,348.965z"/>
				</g>
				<g>
					<path style="fill:#27389B;" d="M301.997,356.916c0.028,2.556-1.707,3.349-5.571,1.657c-0.443-0.195-0.883-0.418-1.316-0.667
						c-1.443-0.835-2.792-1.953-3.903-3.219c0.672,1.943,2.148,3.861,3.962,5.3c0.021,0.017,0.038,0.03,0.055,0.042
						c0.055,0.043,0.099,0.077,0.143,0.111c0.01,0.008,0.02,0.015,0.029,0.022c0.039,0.03,0.052,0.039,0.064,0.049
						c0.037,0.027,0.053,0.039,0.068,0.05c0.034,0.025,0.055,0.04,0.075,0.055c0.23,0.169,0.466,0.329,0.706,0.481
						c0.15,0.096,0.303,0.188,0.457,0.277c0.156,0.091,0.314,0.178,0.475,0.261c0.222,0.115,0.446,0.223,0.672,0.321
						c3.322,1.456,4.84,0.798,4.849-1.364c0.003-0.474-0.067-1.02-0.207-1.632c-0.005-0.021-0.01-0.042-0.015-0.064
						C302.399,358.018,302.221,357.472,301.997,356.916z"/>
				</g>
				<g>
					<path style="fill:#081260;" d="M302.761,360.293c-0.005,0.936-0.292,1.591-0.886,1.914c0.282,0.274,0.573,0.549,0.873,0.824
						l3.41-1.943c-2.072-1.59-3.58-3.123-4.159-4.165c0.224,0.554,0.4,1.097,0.526,1.618c0.002,0.008,0.005,0.017,0.006,0.025
						c0.002,0.01,0.005,0.021,0.008,0.032c0.005,0.021,0.01,0.042,0.015,0.064C302.693,359.272,302.764,359.819,302.761,360.293z"/>
				</g>
				<g>
					<path style="fill:#06123F;" d="M322.654,371.37c-0.209,0.054-0.42,0.102-0.631,0.142l1.787,5.861
						c0.025,0.116,0.509,2.305,4.217,4.446c0.047,0.027,0.095,0.055,0.144,0.083l0.995,0.56c0.281,0.158,0.535,0.057,0.496-0.286
						c-0.076-0.699-0.662-1.5-1.365-1.906c-0.01-0.005-0.019-0.011-0.027-0.016l-0.772-0.436c-0.018-0.01-0.035-0.022-0.056-0.033
						c-0.094-0.055-0.22-0.117-0.365-0.191c-0.146-0.075-0.314-0.162-0.495-0.266c-0.844-0.487-1.971-1.354-2.492-3.102
						L322.654,371.37z"/>
				</g>
				<g>
					<path style="fill:#07134F;" d="M322.886,359.531c-0.039-0.116-0.078-0.23-0.12-0.345l-0.163,0.093
						C322.697,359.363,322.792,359.446,322.886,359.531z"/>
				</g>
				<g>
					<polygon style="fill:#FF0000;" points="325.836,349.874 324.301,350.749 320.139,353.121 319.352,353.569 316.82,355.012 
						306.158,361.087 302.748,363.031 293.756,368.155 292.222,369.028 295.507,374.719 297.041,373.845 299.73,372.313 
						303.375,370.236 308.34,367.407 312.502,365.035 322.603,359.279 322.766,359.186 327.587,356.439 329.121,355.565 					"/>
				</g>
				<g>
					<path style="fill:#FF0000;" d="M310.758,332.048c7.031,4.06,13.633,11.022,18.588,19.606c4.957,8.584,7.673,17.761,7.65,25.841
						c-0.022,8.08-2.783,14.095-7.771,16.938c-4.987,2.843-11.607,2.172-18.639-1.887c-7.032-4.06-13.634-11.023-18.589-19.606
						c-4.956-8.584-7.672-17.76-7.649-25.841c0.022-8.08,2.781-14.095,7.771-16.938
						C297.105,327.317,303.725,327.988,310.758,332.048z M292.222,369.029l3.285,5.691l1.534-0.874
						c3.708,5.589,8.426,10.379,13.561,13.345c11.945,6.896,21.694,1.34,21.733-12.386c0.017-5.9-1.765-12.364-4.748-18.365
						l1.534-0.874l-3.285-5.69l-1.535,0.874c-3.706-5.589-8.424-10.38-13.558-13.344c-11.946-6.897-21.696-1.341-21.735,12.385
						c-0.017,5.9,1.764,12.364,4.748,18.365L292.222,369.029"/>
				</g>
				<g>
					<path style="fill:#030A21;" d="M297.24,361.336c-0.16-0.083-0.318-0.17-0.475-0.261c-0.154-0.089-0.307-0.181-0.457-0.277
						c-0.1,0.657-0.33,1.094-1.253,0.96l-0.722-0.102c-0.671-0.101-1.088,0.345-0.953,1.074c0.048,0.266,0.238,0.506,0.443,0.624
						c0.065,0.038,0.132,0.063,0.196,0.073l0.933,0.135c2.387,0.348,2.295-1.935,2.291-2.055L297.24,361.336z"/>
				</g>
				<g>
					<path style="fill:#0B1375;" d="M319.969,371.69c-0.037-0.001-0.074,0-0.109-0.001
						C319.895,371.69,319.932,371.69,319.969,371.69z"/>
				</g>
				<g>
					<path style="fill:#0B1375;" d="M320.188,371.69c-0.074,0.001-0.147,0-0.219,0C320.041,371.69,320.113,371.69,320.188,371.69z"
						/>
				</g>
				<g>
					<path style="fill:#0B1375;" d="M320.844,371.663c-0.067,0.005-0.134,0.008-0.2,0.012
						C320.71,371.671,320.776,371.668,320.844,371.663z"/>
				</g>
				<g>
					<path style="fill:#0B1375;" d="M320.969,371.652c-0.041,0.003-0.084,0.007-0.125,0.01
						C320.885,371.66,320.928,371.656,320.969,371.652z"/>
				</g>
				<g>
					<path style="fill:#0B1375;" d="M321.17,371.635c-0.067,0.006-0.134,0.012-0.201,0.018
						C321.036,371.647,321.103,371.641,321.17,371.635z"/>
				</g>
				<g>
					<path style="fill:#081260;" d="M328.807,366.239c-4.563,2.944-10.906,1.469-16.305-1.204l-4.162,2.372
						c0.591,0.387,1.191,0.759,1.8,1.11c1.476,0.852,2.994,1.583,4.511,2.128c0.259,0.093,0.518,0.181,0.775,0.262
						c1.387,0.44,2.767,0.714,4.102,0.771C323.185,371.837,326.52,370.371,328.807,366.239z"/>
				</g>
				<g>
					<path style="fill:#0B1375;" d="M321.93,371.528c0.031-0.005,0.063-0.01,0.094-0.016c0.035-0.007,0.071-0.015,0.107-0.023
						C322.063,371.503,321.997,371.516,321.93,371.528z"/>
				</g>
				<g>
					<path style="fill:#0B1375;" d="M322.254,371.464c-0.041,0.009-0.083,0.017-0.124,0.025
						C322.171,371.481,322.213,371.473,322.254,371.464z"/>
				</g>
				<g>
					<path style="fill:#0B1375;" d="M322.573,371.39c0.026-0.007,0.054-0.013,0.081-0.02c0.058-0.015,0.115-0.031,0.172-0.047
						C322.742,371.347,322.657,371.369,322.573,371.39z"/>
				</g>
				<g>
					<path style="fill:#0B1375;" d="M323.147,371.227c-0.1,0.032-0.2,0.063-0.301,0.091
						C322.946,371.29,323.047,371.259,323.147,371.227z"/>
				</g>
				<g>
					<path style="fill:#0B1375;" d="M323.446,371.124c-0.09,0.033-0.181,0.064-0.27,0.093
						C323.266,371.188,323.356,371.157,323.446,371.124z"/>
				</g>
				<g>
					<path style="fill:#0B1375;" d="M323.482,371.111c-0.012,0.004-0.023,0.008-0.036,0.013
						C323.459,371.12,323.471,371.116,323.482,371.111z"/>
				</g>
				<g>
					<path style="fill:#0B1375;" d="M324.06,370.875c-0.19,0.086-0.383,0.165-0.578,0.236
						C323.678,371.04,323.87,370.961,324.06,370.875z"/>
				</g>
				<g>
					<path style="fill:#0B1375;" d="M324.668,370.575c-0.186,0.101-0.375,0.195-0.564,0.282
						C324.293,370.77,324.482,370.676,324.668,370.575z"/>
				</g>
				<g>
					<path style="fill:#0B1375;" d="M324.703,370.555c0.085-0.047,0.17-0.095,0.253-0.145
						C324.873,370.46,324.788,370.508,324.703,370.555z"/>
				</g>
				<g>
					<path style="fill:#0B1375;" d="M324.984,370.394c-0.01,0.006-0.02,0.011-0.028,0.017
						C324.965,370.405,324.975,370.399,324.984,370.394z"/>
				</g>
				<g>
					<path style="fill:#0B1375;" d="M325.525,370.042c-0.084,0.058-0.167,0.115-0.25,0.17
						C325.358,370.157,325.441,370.1,325.525,370.042z"/>
				</g>
				<g>
					<path style="fill:#0B1375;" d="M316.017,354.536c-7.297-4.213-14.584-5.306-17.559-3.057c1.53,1.604,2.792,3.582,3.541,5.443
						c0.579,1.042,2.087,2.576,4.159,4.165l10.662-6.075C316.553,354.849,316.284,354.69,316.017,354.536z"/>
				</g>
				<g>
					<path style="fill:#0B1375;" d="M326.087,369.613c-0.171,0.141-0.343,0.273-0.519,0.398
						C325.744,369.886,325.916,369.753,326.087,369.613z"/>
				</g>
				<g>
					<path style="fill:#0B1375;" d="M326.383,369.359c-0.006,0.006-0.013,0.011-0.02,0.017
						C326.37,369.37,326.377,369.365,326.383,369.359z"/>
				</g>
				<g>
					<path style="fill:#0B1375;" d="M326.668,369.093c-0.012,0.011-0.023,0.022-0.033,0.033
						C326.645,369.115,326.656,369.104,326.668,369.093z"/>
				</g>
				<g>
					<path style="fill:#0B1375;" d="M326.924,368.836c-0.016,0.016-0.03,0.031-0.045,0.046
						C326.893,368.867,326.908,368.852,326.924,368.836z"/>
				</g>
				<g>
					<path style="fill:#0B1375;" d="M327.162,368.58c-0.079,0.087-0.158,0.173-0.238,0.256
						C327.004,368.753,327.083,368.668,327.162,368.58z"/>
				</g>
				<g>
					<path style="fill:#0B1375;" d="M327.391,368.317c-0.074,0.087-0.148,0.173-0.223,0.256
						C327.242,368.49,327.316,368.404,327.391,368.317z"/>
				</g>
				<g>
					<path style="fill:#0B1375;" d="M327.663,367.981c-0.004,0.005-0.009,0.01-0.013,0.016
						C327.654,367.992,327.659,367.987,327.663,367.981z"/>
				</g>
				<g>
					<path style="fill:#07134F;" d="M315.931,350.289c-8.771-4.865-16.101-4.513-18.286,0.397c0.279,0.251,0.551,0.517,0.814,0.792
						c2.975-2.249,10.262-1.156,17.559,3.057c0.268,0.154,0.536,0.313,0.804,0.477l2.531-1.443
						C318.344,352.397,317.188,351.288,315.931,350.289z"/>
				</g>
				<g>
					<path style="fill:#0B1375;" d="M327.883,367.69c-0.072,0.099-0.147,0.196-0.22,0.291
						C327.736,367.886,327.81,367.789,327.883,367.69z"/>
				</g>
				<g>
					<path style="fill:#0B1375;" d="M327.93,367.625c-0.016,0.022-0.031,0.043-0.047,0.065
						C327.898,367.668,327.914,367.647,327.93,367.625z"/>
				</g>
				<g>
					<path style="fill:#0B1375;" d="M328.105,367.375c-0.057,0.085-0.116,0.168-0.176,0.25
						C327.989,367.543,328.049,367.46,328.105,367.375z"/>
				</g>
				<g>
					<path style="fill:#0B1375;" d="M328.15,367.31c-0.016,0.022-0.029,0.043-0.045,0.065
						C328.121,367.353,328.135,367.332,328.15,367.31z"/>
				</g>
				<g>
					<path style="fill:#0B1375;" d="M312.398,347.162c-8.805-5.082-16.028-4.087-16.66,2.096c0.659,0.394,1.299,0.878,1.906,1.429
						c2.185-4.91,9.515-5.262,18.286-0.397c0.198,0.11,0.396,0.222,0.595,0.337c1.084,0.625,2.145,1.306,3.178,2.03
						C317.504,350.57,315.023,348.678,312.398,347.162z"/>
				</g>
				<g>
					<path style="fill:#030E33;" d="M316.525,350.626c-0.198-0.115-0.396-0.228-0.595-0.337c1.257,0.999,2.413,2.108,3.421,3.28
						l0.787-0.449c-0.217-0.239-0.374-0.402-0.436-0.464C318.67,351.932,317.609,351.251,316.525,350.626z"/>
				</g>
				<g>
					<path style="fill:#0B1375;" d="M328.355,366.997c-0.066,0.106-0.136,0.21-0.205,0.313
						C328.22,367.207,328.289,367.103,328.355,366.997z"/>
				</g>
				<g>
					<path style="fill:#0B1375;" d="M328.392,366.941c-0.013,0.019-0.024,0.038-0.036,0.056
						C328.367,366.978,328.379,366.96,328.392,366.941z"/>
				</g>
				<g>
					<path style="fill:#0B1375;" d="M312.502,365.035c5.398,2.673,11.742,4.148,16.305,1.204c-1.752-2.531-3.77-4.769-5.921-6.708
						c-0.094-0.085-0.189-0.169-0.283-0.253L312.502,365.035z"/>
				</g>
			</g>
		</g>
	</g>
</g>
<g id="txt">
	<g>
		<path style="fill:#FFFFFF;" d="M292.558,791.221V753.85h10.447c3.063,0,5.808,0.697,8.238,2.092
			c2.43,1.394,4.325,3.393,5.686,5.994c1.36,2.601,2.041,5.561,2.041,8.881v3.44c0,3.336-0.677,6.297-2.028,8.881
			c-1.353,2.584-3.256,4.576-5.711,5.98c-2.456,1.402-5.274,2.104-8.457,2.104H292.558z M295.715,756.519v32.032h7.084
			c3.936,0,7.093-1.306,9.472-3.917c2.378-2.611,3.567-6.145,3.567-10.597v-3.288c0-4.298-1.173-7.74-3.517-10.326
			c-2.344-2.586-5.434-3.887-9.266-3.904H295.715z"/>
		<path style="fill:#FFFFFF;" d="M347.614,773.306h-17.48v15.246h20.098v2.669h-23.254V753.85h23.125v2.67h-19.969v14.117h17.48
			V773.306z"/>
		<path style="fill:#FFFFFF;" d="M356.88,791.221V753.85h11.037c4.004,0,7.041,0.826,9.111,2.479
			c2.07,1.652,3.105,4.088,3.105,7.307c0,1.935-0.525,3.617-1.578,5.047c-1.053,1.43-2.494,2.453-4.325,3.068
			c2.173,0.479,3.923,1.549,5.249,3.207c1.326,1.659,1.989,3.574,1.989,5.746c0,3.301-1.065,5.879-3.196,7.734
			c-2.13,1.856-5.094,2.783-8.892,2.783H356.88z M360.036,770.61h8.625c2.635-0.052,4.675-0.673,6.121-1.864
			c1.445-1.191,2.169-2.927,2.169-5.207c0-2.4-0.749-4.17-2.245-5.31c-1.498-1.14-3.761-1.71-6.789-1.71h-7.881V770.61z
			 M360.036,773.279v15.273h9.472c2.704,0,4.847-0.688,6.43-2.063s2.374-3.284,2.374-5.728c0-2.306-0.758-4.129-2.271-5.471
			c-1.514-1.341-3.606-2.012-6.275-2.012H360.036z"/>
		<path style="fill:#FFFFFF;" d="M414.836,753.85v25.514c-0.017,2.516-0.573,4.705-1.669,6.57c-1.095,1.865-2.639,3.299-4.633,4.299
			c-1.993,1.002-4.281,1.502-6.865,1.502c-3.936,0-7.089-1.073-9.459-3.221c-2.369-2.147-3.598-5.121-3.683-8.92V753.85h3.132
			v25.282c0,3.15,0.898,5.592,2.694,7.328c1.797,1.737,4.235,2.604,7.315,2.604c3.08,0,5.514-0.872,7.303-2.617
			c1.787-1.746,2.682-4.176,2.682-7.289V753.85H414.836z"/>
		<path style="fill:#FFFFFF;" d="M450.616,786.781c-1.096,1.557-2.811,2.771-5.147,3.644c-2.336,0.873-4.949,1.309-7.842,1.309
			c-2.926,0-5.527-0.701-7.803-2.104c-2.275-1.403-4.038-3.388-5.287-5.954c-1.249-2.567-1.883-5.51-1.899-8.83v-4.723
			c0-5.185,1.31-9.279,3.927-12.281c2.619-3.004,6.135-4.506,10.55-4.506c3.85,0,6.946,0.981,9.292,2.94
			c2.344,1.959,3.738,4.658,4.184,8.098h-3.158c-0.461-2.746-1.578-4.827-3.35-6.243c-1.771-1.415-4.085-2.124-6.942-2.124
			c-3.491,0-6.255,1.242-8.29,3.725c-2.037,2.483-3.055,5.985-3.055,10.506v4.418c0,2.843,0.482,5.356,1.45,7.539
			c0.966,2.184,2.353,3.875,4.158,5.074c1.805,1.198,3.88,1.797,6.224,1.797c2.721,0,5.057-0.427,7.008-1.283
			c1.266-0.565,2.207-1.223,2.823-1.976v-9.651h-10.036v-2.669h13.193V786.781z"/>
		<path style="fill:#FFFFFF;" d="M486.55,786.781c-1.096,1.557-2.811,2.771-5.147,3.644c-2.336,0.873-4.949,1.309-7.841,1.309
			c-2.927,0-5.527-0.701-7.803-2.104c-2.276-1.403-4.038-3.388-5.288-5.954c-1.248-2.567-1.882-5.51-1.898-8.83v-4.723
			c0-5.185,1.309-9.279,3.927-12.281c2.618-3.004,6.134-4.506,10.55-4.506c3.85,0,6.946,0.981,9.291,2.94
			c2.344,1.959,3.738,4.658,4.184,8.098h-3.157c-0.462-2.746-1.579-4.827-3.35-6.243c-1.77-1.415-4.085-2.124-6.942-2.124
			c-3.491,0-6.255,1.242-8.291,3.725c-2.037,2.483-3.055,5.985-3.055,10.506v4.418c0,2.843,0.483,5.356,1.451,7.539
			c0.966,2.184,2.352,3.875,4.158,5.074c1.805,1.198,3.879,1.797,6.224,1.797c2.721,0,5.056-0.427,7.007-1.283
			c1.266-0.565,2.207-1.223,2.824-1.976v-9.651h-10.037v-2.669h13.193V786.781z"/>
		<path style="fill:#FFFFFF;" d="M516.144,773.306h-17.479v15.246h20.098v2.669h-23.255V753.85h23.126v2.67h-19.969v14.117h17.479
			V773.306z"/>
		<path style="fill:#FFFFFF;" d="M539.373,775.641h-10.856v15.58h-3.184V753.85h12.141c3.986,0,7.102,0.966,9.344,2.897
			c2.24,1.931,3.361,4.632,3.361,8.101c0,2.392-0.701,4.504-2.104,6.332c-1.403,1.83-3.285,3.094-5.647,3.795l9.343,15.912v0.334
			h-3.362L539.373,775.641z M528.517,772.972h9.676c2.652,0,4.783-0.754,6.391-2.263c1.609-1.508,2.413-3.461,2.413-5.861
			c0-2.639-0.839-4.687-2.515-6.143c-1.678-1.457-4.03-2.186-7.059-2.186h-8.906V772.972z"/>
	</g>
	<g>
		<path style="fill:#2A7296;" d="M356.779,818.342c0,2.412-0.534,4.326-1.603,5.742c-1.067,1.416-2.498,2.125-4.291,2.125
			c-2.116,0-3.737-0.744-4.863-2.232v7.896h-1.701v-21.428h1.588l0.086,2.19c1.115-1.65,2.731-2.475,4.848-2.475
			c1.851,0,3.303,0.701,4.355,2.102c1.055,1.401,1.581,3.347,1.581,5.835V818.342z M355.063,818.041
			c0-1.974-0.406-3.533-1.217-4.678c-0.811-1.144-1.94-1.716-3.39-1.716c-1.049,0-1.95,0.253-2.703,0.759
			c-0.753,0.505-1.33,1.238-1.732,2.202v7.423c0.41,0.887,0.997,1.564,1.76,2.031c0.764,0.468,1.664,0.701,2.703,0.701
			c1.441,0,2.563-0.574,3.369-1.724C354.66,821.891,355.063,820.225,355.063,818.041z"/>
		<path style="fill:#2A7296;" d="M367.722,811.904c-0.363-0.066-0.749-0.1-1.158-0.1c-1.068,0-1.973,0.299-2.711,0.895
			c-0.739,0.596-1.266,1.461-1.58,2.596v10.627h-1.703v-15.477h1.674l0.029,2.461c0.905-1.831,2.359-2.746,4.361-2.746
			c0.478,0,0.854,0.063,1.131,0.185L367.722,811.904z"/>
		<path style="fill:#2A7296;" d="M369.194,817.955c0-1.487,0.289-2.827,0.866-4.02c0.577-1.191,1.392-2.119,2.446-2.781
			c1.053-0.663,2.248-0.994,3.582-0.994c2.061,0,3.729,0.723,5.007,2.166c1.277,1.445,1.917,3.359,1.917,5.744v0.357
			c0,1.496-0.289,2.844-0.865,4.041c-0.578,1.196-1.391,2.119-2.439,2.768c-1.049,0.648-2.246,0.973-3.59,0.973
			c-2.051,0-3.717-0.723-5-2.168c-1.281-1.444-1.924-3.358-1.924-5.742V817.955z M370.911,818.428c0,1.85,0.479,3.368,1.438,4.555
			c0.959,1.188,2.215,1.781,3.77,1.781c1.545,0,2.796-0.594,3.754-1.781c0.959-1.187,1.438-2.753,1.438-4.698v-0.329
			c0-1.182-0.219-2.265-0.657-3.246c-0.439-0.982-1.054-1.743-1.845-2.282c-0.792-0.538-1.698-0.808-2.719-0.808
			c-1.525,0-2.77,0.598-3.732,1.795c-0.963,1.197-1.445,2.763-1.445,4.699V818.428z"/>
		<path style="fill:#2A7296;" d="M387.775,825.922v-14.074h-2.561v-1.402h2.561v-1.873c0-1.583,0.403-2.799,1.208-3.648
			c0.807-0.849,1.93-1.273,3.369-1.273c0.648,0,1.254,0.08,1.816,0.24l-0.129,1.418c-0.477-0.113-0.996-0.172-1.559-0.172
			c-0.944,0-1.679,0.295-2.203,0.883c-0.524,0.588-0.787,1.422-0.787,2.502v1.922h3.691v1.402h-3.691v14.074H387.775z"/>
		<path style="fill:#2A7296;" d="M401.893,826.209c-1.316,0-2.506-0.324-3.569-0.973c-1.063-0.648-1.891-1.553-2.481-2.711
			c-0.592-1.158-0.887-2.458-0.887-3.898v-0.614c0-1.487,0.288-2.827,0.865-4.019c0.576-1.192,1.381-2.129,2.41-2.811
			c1.029-0.682,2.145-1.022,3.347-1.022c1.878,0,3.368,0.641,4.47,1.924c1.102,1.282,1.652,3.035,1.652,5.256v0.959h-11.043v0.328
			c0,1.756,0.504,3.217,1.51,4.385c1.006,1.168,2.271,1.752,3.797,1.752c0.916,0,1.725-0.166,2.426-0.5
			c0.7-0.334,1.337-0.868,1.908-1.603l1.073,0.816C406.112,825.298,404.286,826.209,401.893,826.209z M401.578,811.619
			c-1.287,0-2.372,0.472-3.254,1.416c-0.882,0.943-1.419,2.212-1.608,3.805h9.282v-0.185c-0.048-1.488-0.472-2.699-1.272-3.634
			C403.925,812.086,402.875,811.619,401.578,811.619z"/>
		<path style="fill:#2A7296;" d="M420.302,821.988c0-0.848-0.342-1.529-1.023-2.045c-0.682-0.515-1.709-0.918-3.082-1.209
			c-1.373-0.291-2.439-0.624-3.197-1.001c-0.758-0.376-1.32-0.837-1.688-1.38c-0.367-0.544-0.551-1.201-0.551-1.975
			c0-1.221,0.51-2.229,1.531-3.025c1.02-0.795,2.326-1.193,3.918-1.193c1.727,0,3.111,0.427,4.156,1.279
			c1.043,0.854,1.566,1.967,1.566,3.34h-1.717c0-0.905-0.379-1.658-1.138-2.26c-0.758-0.6-1.714-0.9-2.868-0.9
			c-1.125,0-2.028,0.25-2.71,0.75c-0.683,0.502-1.022,1.152-1.022,1.953c0,0.772,0.283,1.371,0.851,1.795
			c0.567,0.424,1.603,0.813,3.104,1.166c1.502,0.352,2.627,0.729,3.375,1.13c0.748,0.4,1.305,0.882,1.666,1.444
			c0.363,0.563,0.544,1.244,0.544,2.045c0,1.307-0.526,2.352-1.581,3.133c-1.053,0.782-2.429,1.174-4.126,1.174
			c-1.802,0-3.264-0.438-4.384-1.309c-1.121-0.873-1.681-1.977-1.681-3.313h1.716c0.066,1.002,0.488,1.781,1.266,2.34
			c0.777,0.557,1.805,0.836,3.083,0.836c1.192,0,2.155-0.262,2.89-0.787C419.935,823.453,420.302,822.79,420.302,821.988z"/>
		<path style="fill:#2A7296;" d="M435.134,821.988c0-0.848-0.34-1.529-1.021-2.045c-0.683-0.515-1.71-0.918-3.083-1.209
			c-1.373-0.291-2.439-0.624-3.196-1.001c-0.759-0.376-1.321-0.837-1.689-1.38c-0.367-0.544-0.551-1.201-0.551-1.975
			c0-1.221,0.511-2.229,1.53-3.025c1.021-0.795,2.326-1.193,3.92-1.193c1.726,0,3.11,0.427,4.154,1.279
			c1.045,0.854,1.566,1.967,1.566,3.34h-1.717c0-0.905-0.379-1.658-1.137-2.26c-0.758-0.6-1.714-0.9-2.867-0.9
			c-1.125,0-2.029,0.25-2.711,0.75c-0.682,0.502-1.023,1.152-1.023,1.953c0,0.772,0.284,1.371,0.852,1.795
			c0.567,0.424,1.602,0.813,3.103,1.166c1.502,0.352,2.627,0.729,3.376,1.13s1.304,0.882,1.667,1.444
			c0.361,0.563,0.543,1.244,0.543,2.045c0,1.307-0.527,2.352-1.58,3.133c-1.055,0.782-2.43,1.174-4.127,1.174
			c-1.803,0-3.264-0.438-4.384-1.309c-1.12-0.873-1.681-1.977-1.681-3.313h1.717c0.066,1.002,0.488,1.781,1.266,2.34
			c0.777,0.557,1.805,0.836,3.082,0.836c1.191,0,2.154-0.262,2.889-0.787C434.767,823.453,435.134,822.79,435.134,821.988z"/>
		<path style="fill:#2A7296;" d="M440.599,805.977c0-0.322,0.103-0.596,0.314-0.818c0.209-0.223,0.495-0.334,0.857-0.334
			c0.363,0,0.651,0.111,0.865,0.334c0.215,0.223,0.322,0.496,0.322,0.818c0,0.322-0.107,0.592-0.322,0.809
			c-0.214,0.218-0.502,0.327-0.865,0.327c-0.362,0-0.648-0.109-0.857-0.327C440.702,806.568,440.599,806.299,440.599,805.977z
			 M442.614,825.922h-1.716v-15.477h1.716V825.922z"/>
		<path style="fill:#2A7296;" d="M446.319,817.955c0-1.487,0.289-2.827,0.865-4.02c0.577-1.191,1.393-2.119,2.446-2.781
			c1.054-0.663,2.248-0.994,3.583-0.994c2.06,0,3.729,0.723,5.006,2.166c1.277,1.445,1.917,3.359,1.917,5.744v0.357
			c0,1.496-0.288,2.844-0.865,4.041c-0.577,1.196-1.39,2.119-2.439,2.768c-1.049,0.648-2.246,0.973-3.59,0.973
			c-2.051,0-3.717-0.723-5-2.168c-1.282-1.444-1.924-3.358-1.924-5.742V817.955z M448.036,818.428c0,1.85,0.478,3.368,1.438,4.555
			c0.958,1.188,2.215,1.781,3.77,1.781c1.544,0,2.795-0.594,3.754-1.781c0.959-1.187,1.438-2.753,1.438-4.698v-0.329
			c0-1.182-0.219-2.265-0.658-3.246c-0.438-0.982-1.053-1.743-1.845-2.282c-0.792-0.538-1.698-0.808-2.718-0.808
			c-1.525,0-2.77,0.598-3.733,1.795c-0.963,1.197-1.444,2.763-1.444,4.699V818.428z"/>
		<path style="fill:#2A7296;" d="M465.3,810.445l0.058,2.646c0.581-0.953,1.307-1.68,2.175-2.182c0.867-0.5,1.826-0.75,2.875-0.75
			c1.658,0,2.894,0.467,3.704,1.401c0.811,0.935,1.221,2.337,1.229,4.206v10.154h-1.701v-10.17c-0.01-1.382-0.303-2.412-0.88-3.089
			c-0.577-0.677-1.499-1.016-2.768-1.016c-1.059,0-1.995,0.331-2.812,0.994c-0.814,0.663-1.418,1.557-1.809,2.682v10.599h-1.702
			v-15.477H465.3z"/>
		<path style="fill:#2A7296;" d="M489.53,825.922c-0.172-0.486-0.281-1.205-0.328-2.159c-0.602,0.782-1.367,1.386-2.297,1.81
			c-0.93,0.424-1.914,0.637-2.953,0.637c-1.488,0-2.691-0.416-3.611-1.245c-0.921-0.829-1.381-1.878-1.381-3.147
			c0-1.507,0.627-2.698,1.881-3.576c1.254-0.877,3.002-1.315,5.242-1.315h3.103v-1.76c0-1.106-0.34-1.977-1.021-2.61
			c-0.683-0.634-1.677-0.951-2.982-0.951c-1.192,0-2.18,0.306-2.961,0.915c-0.782,0.611-1.174,1.345-1.174,2.203l-1.716-0.014
			c0-1.23,0.572-2.297,1.716-3.197c1.145-0.901,2.551-1.352,4.221-1.352c1.725,0,3.086,0.432,4.083,1.294
			c0.997,0.863,1.509,2.067,1.538,3.612v7.322c0,1.498,0.156,2.618,0.472,3.361v0.172H489.53z M484.152,824.692
			c1.144,0,2.167-0.276,3.067-0.829c0.902-0.554,1.557-1.293,1.967-2.218v-3.404h-3.061c-1.707,0.019-3.041,0.331-4.005,0.936
			c-0.963,0.606-1.444,1.438-1.444,2.496c0,0.868,0.322,1.588,0.965,2.16C482.286,824.406,483.122,824.692,484.152,824.692z"/>
		<path style="fill:#2A7296;" d="M497.368,825.922h-1.716v-21.97h1.716V825.922z"/>
	</g>
	<g>
		<g>
			<path style="fill:#3C9BB8;" d="M299.779,45.708h4.376c-0.642,2.45-1.868,4.318-3.675,5.601c-1.809,1.343-4.084,2.013-6.826,2.013
				c-3.324,0-5.921-1.079-7.787-3.238c-1.868-2.1-2.801-5.104-2.801-9.013c0-3.732,0.904-6.65,2.713-8.751
				c1.866-2.157,4.463-3.237,7.788-3.237c3.501,0,6.212,1.05,8.138,3.149c1.051,1.285,1.809,2.772,2.275,4.463h-6.125
				c-0.293-0.582-0.584-1.02-0.875-1.313c-0.76-0.815-1.838-1.225-3.238-1.225c-1.283,0-2.334,0.409-3.15,1.225
				c-1.05,1.168-1.574,3.094-1.574,5.775c0,2.685,0.525,4.581,1.574,5.688c0.758,0.935,1.895,1.399,3.414,1.399
				c0.99,0,1.836-0.203,2.536-0.611c0.175-0.059,0.335-0.16,0.481-0.307c0.145-0.146,0.307-0.307,0.482-0.481
				c0.116-0.175,0.35-0.407,0.7-0.7C298.555,45.854,299.08,45.708,299.779,45.708z"/>
			<path style="fill:#3C9BB8;" d="M306.132,52.884V41.595c0-2.274,0.335-4.185,1.006-5.73s1.59-2.785,2.757-3.719
				c1.107-0.875,2.406-1.518,3.895-1.926c1.486-0.408,3.02-0.613,4.594-0.613c0.116,0,0.262,0,0.438,0c0.175,0,0.32,0,0.438,0v6.213
				h-2.013c-1.692,0-2.946,0.41-3.763,1.226c-0.817,0.817-1.226,2.101-1.226,3.851v11.988H306.132z"/>
			<path style="fill:#3C9BB8;" d="M337.072,45.708h4.375c-0.643,2.45-1.867,4.318-3.674,5.601c-1.81,1.343-4.085,2.013-6.826,2.013
				c-3.326,0-5.922-1.079-7.788-3.238c-1.868-2.1-2.8-5.104-2.8-9.013c0-3.732,0.904-6.65,2.713-8.751
				c1.865-2.157,4.462-3.237,7.787-3.237c3.5,0,6.213,1.05,8.139,3.149c1.865,2.16,2.8,5.164,2.8,9.014c0,0.234,0,0.438,0,0.612
				s0,0.293,0,0.351c0,0.293-0.03,0.496-0.087,0.612h-15.139c0.057,1.809,0.494,3.15,1.313,4.025
				c0.758,0.935,1.895,1.399,3.412,1.399c0.992,0,1.838-0.203,2.538-0.611c0.175-0.059,0.335-0.16,0.482-0.307
				c0.145-0.146,0.307-0.307,0.48-0.481c0.058-0.175,0.277-0.407,0.657-0.7C335.832,45.854,336.373,45.708,337.072,45.708z
				 M326.572,38.883h8.926c-0.117-1.575-0.525-2.741-1.226-3.501c-0.759-0.815-1.837-1.225-3.237-1.225
				c-1.285,0-2.334,0.409-3.15,1.225C327.066,36.2,326.629,37.366,326.572,38.883z"/>
			<path style="fill:#3C9BB8;" d="M358.65,51.921c-1.227,0.643-2.525,1.035-3.895,1.182c-1.371,0.145-2.581,0.219-3.632,0.219
				c-2.1,0-3.938-0.568-5.513-1.707c-1.574-1.137-2.362-3.019-2.362-5.644c0-2.45,0.714-4.2,2.143-5.251
				c1.43-1.049,3.252-1.75,5.47-2.1c0.291,0,0.641-0.043,1.05-0.131c0.408-0.088,0.875-0.16,1.4-0.219
				c2.566-0.351,3.85-1.107,3.85-2.275c0-0.875-0.452-1.443-1.355-1.707c-0.905-0.262-1.736-0.394-2.494-0.394
				c-0.818,0-1.547,0.118-2.189,0.351c-0.642,0.233-1.108,0.672-1.399,1.313h-5.863c0.232-1.808,1.051-3.295,2.45-4.463
				c1.575-1.342,3.821-2.013,6.738-2.013c3.267,0,5.716,0.556,7.351,1.663c1.691,1.167,2.537,2.8,2.537,4.9v7.963
				c0,2.334-0.424,4.156-1.269,5.469C360.822,50.39,359.816,51.339,358.65,51.921z M357.25,41.157
				c-0.817,0.409-1.955,0.789-3.412,1.139l-2.014,0.438c-1.049,0.292-1.809,0.671-2.275,1.137c-0.408,0.643-0.611,1.284-0.611,1.926
				c0,0.875,0.262,1.574,0.787,2.1c0.524,0.468,1.283,0.7,2.275,0.7c1.632,0,2.916-0.466,3.85-1.399
				c0.933-0.934,1.4-2.217,1.4-3.851V41.157z"/>
			<path style="fill:#3C9BB8;" d="M374.645,52.884c-1.924,0.116-4.012,0.088-6.256-0.088c-2.247-0.175-3.369-1.603-3.369-4.287
				V22.782h3.15c0.757,0,1.429,0.292,2.012,0.874c0.583,0.584,0.876,1.284,0.876,2.101v3.938h3.587v1.225
				c0,0.875-0.292,1.591-0.874,2.145c-0.584,0.555-1.284,0.831-2.101,0.831h-0.612v12.951c0,0.993,0.582,1.487,1.75,1.487h1.837
				V52.884z"/>
			<path style="fill:#3C9BB8;" d="M376.202,22.782h3.149c0.817,0,1.518,0.292,2.102,0.874c0.582,0.584,0.875,1.284,0.875,2.101
				v1.838h-6.126V22.782z M376.202,29.606h3.149c0.817,0,1.518,0.293,2.102,0.876c0.582,0.584,0.875,1.283,0.875,2.1v20.302h-6.126
				V29.606z"/>
			<path style="fill:#3C9BB8;" d="M397.955,52.884h-6.213l-8.139-23.277h6.476l4.638,16.364l4.113-14.263
				c0.466-1.4,1.4-2.102,2.8-2.102h4.55L397.955,52.884z"/>
			<path style="fill:#3C9BB8;" d="M421.898,45.708h4.376c-0.644,2.45-1.869,4.318-3.676,5.601c-1.81,1.343-4.084,2.013-6.825,2.013
				c-3.326,0-5.922-1.079-7.789-3.238c-1.867-2.1-2.799-5.104-2.799-9.013c0-3.732,0.902-6.65,2.711-8.751
				c1.867-2.157,4.464-3.237,7.789-3.237c3.5,0,6.213,1.05,8.138,3.149c1.867,2.16,2.801,5.164,2.801,9.014c0,0.234,0,0.438,0,0.612
				s0,0.293,0,0.351c0,0.293-0.031,0.496-0.088,0.612h-15.139c0.058,1.809,0.495,3.15,1.313,4.025
				c0.757,0.935,1.896,1.399,3.413,1.399c0.99,0,1.838-0.203,2.537-0.611c0.176-0.059,0.336-0.16,0.482-0.307
				c0.146-0.146,0.307-0.307,0.481-0.481c0.058-0.175,0.275-0.407,0.656-0.7C420.658,45.854,421.198,45.708,421.898,45.708z
				 M411.397,38.883h8.926c-0.118-1.575-0.524-2.741-1.225-3.501c-0.759-0.815-1.838-1.225-3.239-1.225
				c-1.283,0-2.333,0.409-3.149,1.225C411.892,36.2,411.455,37.366,411.397,38.883z"/>
			<path style="fill:#3C9BB8;" d="M444.106,58.483c0,0.816-0.293,1.517-0.875,2.101c-0.584,0.583-1.284,0.875-2.1,0.875h-2.975
				V39.671c0-4.084,1.193-6.869,3.586-8.357c2.393-1.488,4.988-2.231,7.789-2.231c1.457,0,2.932,0.278,4.419,0.831
				c1.487,0.555,2.669,1.357,3.544,2.406c1.75,2.275,2.625,5.193,2.625,8.751c0,3.675-0.875,6.65-2.625,8.925
				c-1.75,2.219-3.996,3.326-6.738,3.326c-1.459,0-2.742-0.263-3.85-0.787c-1.168-0.583-2.102-1.488-2.801-2.713V58.483z
				 M454.083,41.333c0-2.275-0.438-4.025-1.313-5.25c-0.875-1.226-2.131-1.838-3.764-1.838c-1.575,0-2.8,0.612-3.675,1.838
				c-0.817,1.108-1.226,2.858-1.226,5.25c0,2.218,0.438,3.881,1.313,4.988c0.875,1.225,2.129,1.837,3.764,1.837
				c1.516,0,2.713-0.612,3.588-1.837C453.646,45.095,454.083,43.433,454.083,41.333z"/>
			<path style="fill:#3C9BB8;" d="M477.866,45.708h4.374c-0.642,2.45-1.866,4.318-3.675,5.601c-1.809,1.343-4.084,2.013-6.824,2.013
				c-3.326,0-5.923-1.079-7.789-3.238c-1.868-2.1-2.8-5.104-2.8-9.013c0-3.732,0.903-6.65,2.712-8.751
				c1.866-2.157,4.463-3.237,7.789-3.237c3.5,0,6.213,1.05,8.138,3.149c1.866,2.16,2.8,5.164,2.8,9.014c0,0.234,0,0.438,0,0.612
				s0,0.293,0,0.351c0,0.293-0.03,0.496-0.088,0.612h-15.139c0.059,1.809,0.496,3.15,1.313,4.025
				c0.758,0.935,1.897,1.399,3.414,1.399c0.99,0,1.837-0.203,2.537-0.611c0.176-0.059,0.335-0.16,0.48-0.307
				c0.146-0.146,0.307-0.307,0.482-0.481c0.057-0.175,0.275-0.407,0.656-0.7C476.626,45.854,477.165,45.708,477.866,45.708z
				 M467.364,38.883h8.926c-0.117-1.575-0.525-2.741-1.225-3.501c-0.759-0.815-1.838-1.225-3.238-1.225
				c-1.283,0-2.333,0.409-3.15,1.225C467.86,36.2,467.423,37.366,467.364,38.883z"/>
			<path style="fill:#3C9BB8;" d="M486.948,50.783c-1.225-1.05-2.1-2.464-2.625-4.243c-0.525-1.779-0.787-3.632-0.787-5.557
				c0-1.576,0.218-3.15,0.656-4.727c0.436-1.574,1.122-2.887,2.056-3.938c1.517-1.75,3.47-2.785,5.862-3.105
				c2.392-0.32,4.551-0.132,6.477,0.568c2.216,0.875,3.85,2.393,4.9,4.551c0.99,1.924,1.486,4.171,1.486,6.737
				c0,1.868-0.205,3.472-0.611,4.813c-0.409,1.342-0.935,2.479-1.576,3.412c-1.4,1.925-3.18,3.121-5.338,3.588
				c-1.924,0.525-3.865,0.568-5.818,0.131C489.675,52.577,488.114,51.833,486.948,50.783z M491.148,35.382
				c-1.226,1.344-1.78,3.341-1.663,5.994c0.117,2.656,0.612,4.508,1.488,5.557c0.35,0.469,0.962,0.861,1.838,1.182
				c0.875,0.321,1.764,0.35,2.668,0.088c0.904-0.262,1.707-0.919,2.406-1.969c0.701-1.051,1.079-2.742,1.138-5.076
				c0-2.1-0.336-3.675-1.006-4.725c-0.671-1.051-1.444-1.721-2.319-2.013c-0.875-0.291-1.75-0.306-2.625-0.044
				C492.198,34.639,491.556,34.976,491.148,35.382z"/>
			<path style="fill:#3C9BB8;" d="M512.393,58.483c0,0.816-0.292,1.517-0.874,2.101c-0.584,0.583-1.284,0.875-2.101,0.875h-2.975
				V39.671c0-4.084,1.194-6.869,3.587-8.357c2.392-1.488,4.987-2.231,7.788-2.231c1.457,0,2.932,0.278,4.419,0.831
				c1.487,0.555,2.669,1.357,3.544,2.406c1.75,2.275,2.625,5.193,2.625,8.751c0,3.675-0.875,6.65-2.625,8.925
				c-1.75,2.219-3.996,3.326-6.738,3.326c-1.459,0-2.742-0.263-3.85-0.787c-1.168-0.583-2.101-1.488-2.801-2.713V58.483z
				 M522.37,41.333c0-2.275-0.438-4.025-1.313-5.25c-0.875-1.226-2.131-1.838-3.764-1.838c-1.575,0-2.8,0.612-3.675,1.838
				c-0.817,1.108-1.226,2.858-1.226,5.25c0,2.218,0.438,3.881,1.313,4.988c0.875,1.225,2.129,1.837,3.763,1.837
				c1.516,0,2.713-0.612,3.588-1.837C521.933,45.095,522.37,43.433,522.37,41.333z"/>
			<path style="fill:#3C9BB8;" d="M529.72,22.782h3.15c0.816,0,1.517,0.277,2.101,0.831c0.583,0.556,0.874,1.239,0.874,2.056v27.215
				h-6.125V22.782z"/>
			<path style="fill:#3C9BB8;" d="M554.098,45.708h4.375c-0.642,2.45-1.867,4.318-3.675,5.601c-1.809,1.343-4.084,2.013-6.825,2.013
				c-3.325,0-5.922-1.079-7.788-3.238c-1.868-2.1-2.8-5.104-2.8-9.013c0-3.732,0.903-6.65,2.712-8.751
				c1.866-2.157,4.463-3.237,7.789-3.237c3.499,0,6.212,1.05,8.138,3.149c1.866,2.16,2.8,5.164,2.8,9.014c0,0.234,0,0.438,0,0.612
				s0,0.293,0,0.351c0,0.293-0.03,0.496-0.088,0.612h-15.139c0.059,1.809,0.495,3.15,1.313,4.025
				c0.758,0.935,1.896,1.399,3.413,1.399c0.991,0,1.838-0.203,2.538-0.611c0.175-0.059,0.335-0.16,0.481-0.307
				c0.146-0.146,0.307-0.307,0.482-0.481c0.057-0.175,0.275-0.407,0.656-0.7C552.858,45.854,553.397,45.708,554.098,45.708z
				 M543.597,38.883h8.926c-0.117-1.575-0.525-2.741-1.225-3.501c-0.759-0.815-1.838-1.225-3.238-1.225
				c-1.283,0-2.334,0.409-3.15,1.225C544.092,36.2,543.655,37.366,543.597,38.883z"/>
		</g>
		<g>
			<path style="fill:#3C9BB8;" d="M289.482,78.05c0.867,0,1.631-0.246,2.293-0.739c0.662-0.493,0.994-1.178,0.994-2.056h1.157
				l0.022,0.066c0.036,1.092-0.4,2.005-1.311,2.74c-0.91,0.734-1.961,1.102-3.155,1.102c-1.607,0-2.851-0.551-3.727-1.654
				c-0.879-1.102-1.316-2.519-1.316-4.251V72.8c0-1.718,0.441-3.13,1.321-4.236c0.88-1.105,2.118-1.66,3.712-1.66
				c1.295,0,2.373,0.383,3.236,1.147c0.862,0.764,1.279,1.769,1.25,3.013l-0.022,0.065h-1.168c0-0.946-0.319-1.701-0.956-2.265
				c-0.636-0.565-1.417-0.847-2.341-0.847c-1.268,0-2.204,0.453-2.811,1.358c-0.608,0.904-0.911,2.044-0.911,3.418v0.458
				c0,1.396,0.301,2.544,0.905,3.446C287.26,77.6,288.202,78.05,289.482,78.05z"/>
			<path style="fill:#3C9BB8;" d="M316.078,72.854c0-1.739,0.477-3.165,1.43-4.278c0.953-1.114,2.217-1.672,3.789-1.672
				c1.578,0,2.845,0.558,3.799,1.672c0.953,1.113,1.43,2.539,1.43,4.278v0.36c0,1.747-0.476,3.175-1.426,4.285
				c-0.949,1.109-2.209,1.664-3.781,1.664c-1.588,0-2.857-0.555-3.81-1.664c-0.953-1.11-1.43-2.538-1.43-4.285V72.854z
				 M317.388,73.208c0,1.367,0.347,2.516,1.038,3.446c0.69,0.931,1.654,1.396,2.892,1.396c1.215,0,2.17-0.465,2.865-1.396
				c0.695-0.931,1.043-2.079,1.043-3.446v-0.359c0-1.346-0.35-2.486-1.049-3.424c-0.698-0.938-1.659-1.407-2.881-1.407
				c-1.224,0-2.181,0.469-2.871,1.407c-0.691,0.938-1.038,2.078-1.038,3.424V73.208z"/>
			<path style="fill:#3C9BB8;" d="M350.839,78.935h-1.3v-17.03h1.3V78.935z"/>
			<path style="fill:#3C9BB8;" d="M376.037,78.935h-1.3v-17.03h1.3V78.935z"/>
			<path style="fill:#3C9BB8;" d="M404.204,79.163c-1.479,0-2.706-0.545-3.685-1.637c-0.979-1.092-1.469-2.475-1.469-4.148v-0.601
				c0-1.688,0.486-3.089,1.457-4.202c0.973-1.114,2.148-1.672,3.531-1.672c1.449,0,2.588,0.459,3.418,1.377
				c0.829,0.916,1.244,2.139,1.244,3.668v1.113h-8.34v0.315c0,1.329,0.352,2.44,1.058,3.333c0.706,0.894,1.634,1.34,2.785,1.34
				c0.814,0,1.51-0.112,2.085-0.338c0.574-0.226,1.065-0.55,1.473-0.973l0.557,0.896c-0.443,0.467-1.006,0.839-1.685,1.114
				C405.951,79.026,405.142,79.163,404.204,79.163z M404.039,68.018c-0.968,0-1.779,0.368-2.434,1.104
				c-0.655,0.737-1.037,1.661-1.146,2.771l0.021,0.055h6.922V71.62c0-1.022-0.303-1.879-0.906-2.568
				C405.892,68.362,405.072,68.018,404.039,68.018z"/>
			<path style="fill:#3C9BB8;" d="M435.788,78.05c0.865,0,1.629-0.246,2.291-0.739c0.662-0.493,0.994-1.178,0.994-2.056h1.157
				l0.022,0.066c0.035,1.092-0.401,2.005-1.31,2.74c-0.91,0.734-1.962,1.102-3.154,1.102c-1.609,0-2.853-0.551-3.729-1.654
				c-0.878-1.102-1.316-2.519-1.316-4.251V72.8c0-1.718,0.441-3.13,1.322-4.236c0.879-1.105,2.117-1.66,3.711-1.66
				c1.295,0,2.375,0.383,3.236,1.147c0.862,0.764,1.279,1.769,1.25,3.013l-0.021,0.065h-1.168c0-0.946-0.318-1.701-0.955-2.265
				c-0.637-0.565-1.418-0.847-2.342-0.847c-1.266,0-2.204,0.453-2.811,1.358c-0.608,0.904-0.911,2.044-0.911,3.418v0.458
				c0,1.396,0.301,2.544,0.906,3.446C433.563,77.6,434.506,78.05,435.788,78.05z"/>
			<path style="fill:#3C9BB8;" d="M465.166,64.099v3.023h2.599v1.07h-2.599v7.696c0,0.771,0.14,1.319,0.421,1.644
				c0.279,0.323,0.652,0.485,1.117,0.485c0.213,0,0.418-0.009,0.617-0.028c0.201-0.018,0.432-0.048,0.693-0.092l0.197,0.971
				c-0.219,0.096-0.484,0.168-0.797,0.219c-0.314,0.051-0.626,0.076-0.939,0.076c-0.829,0-1.476-0.262-1.938-0.785
				c-0.462-0.524-0.693-1.354-0.693-2.489v-7.696h-2.041v-1.07h2.041v-3.023H465.166z"/>
			<path style="fill:#3C9BB8;" d="M492.122,63.739h-1.3v-1.835h1.3V63.739z M492.122,78.935h-1.3V67.122h1.3V78.935z"/>
			<path style="fill:#3C9BB8;" d="M515.124,72.854c0-1.739,0.477-3.165,1.43-4.278c0.955-1.114,2.217-1.672,3.789-1.672
				c1.579,0,2.846,0.558,3.799,1.672c0.953,1.113,1.43,2.539,1.43,4.278v0.36c0,1.747-0.475,3.175-1.425,4.285
				c-0.948,1.109-2.21,1.664-3.782,1.664c-1.587,0-2.855-0.555-3.81-1.664c-0.952-1.11-1.43-2.538-1.43-4.285V72.854z
				 M516.435,73.208c0,1.367,0.346,2.516,1.037,3.446c0.691,0.931,1.655,1.396,2.893,1.396c1.215,0,2.171-0.465,2.865-1.396
				c0.695-0.931,1.043-2.079,1.043-3.446v-0.359c0-1.346-0.349-2.486-1.048-3.424c-0.698-0.938-1.659-1.407-2.882-1.407
				c-1.223,0-2.18,0.469-2.871,1.407c-0.691,0.938-1.037,2.078-1.037,3.424V73.208z"/>
			<path style="fill:#3C9BB8;" d="M549.579,67.122l0.121,2.063c0.378-0.728,0.889-1.29,1.533-1.687
				c0.645-0.396,1.406-0.596,2.287-0.596c1.281,0,2.256,0.393,2.926,1.175c0.67,0.782,1.004,2.003,1.004,3.662v7.194h-1.311v-7.197
				c0-1.357-0.252-2.315-0.758-2.877c-0.506-0.563-1.225-0.843-2.156-0.843c-0.917,0-1.664,0.243-2.243,0.728
				c-0.579,0.485-0.995,1.129-1.251,1.931v8.259h-1.309V67.122H549.579z"/>
		</g>
	</g>
</g>
</svg>
